<svg width="16" height="16" viewBox="0 0 16 16" fill="none" xmlns="http://www.w3.org/2000/svg">
<g clip-path="url(#clip0_4686_9001)">
<path d="M11.7897 14.758L5.6421 8.51163C5.50727 8.37535 5.43164 8.19137 5.43164 7.99966C5.43164 7.80794 5.50727 7.62397 5.6421 7.48768L11.7884 1.24131C11.9232 1.10418 11.9987 0.919601 11.9987 0.727335C11.9987 0.535069 11.9232 0.350493 11.7884 0.21336C11.7226 0.145832 11.6439 0.092164 11.557 0.055521C11.4701 0.018878 11.3767 0 11.2824 0C11.1881 0 11.0948 0.018878 11.0079 0.055521C10.921 0.092164 10.8423 0.145832 10.7765 0.21336L4.63016 6.4584C4.22628 6.86974 4 7.42318 4 7.99966C4 8.57613 4.22628 9.12958 4.63016 9.54092L10.7765 15.786C10.8423 15.8537 10.9211 15.9075 11.0081 15.9443C11.0951 15.9811 11.1886 16 11.2831 16C11.3776 16 11.4711 15.9811 11.5581 15.9443C11.6451 15.9075 11.7239 15.8537 11.7897 15.786C11.9245 15.6488 12 15.4642 12 15.272C12 15.0797 11.9245 14.8951 11.7897 14.758Z" fill="black"/>
</g>
<defs>
<clipPath id="clip0_4686_9001">
<rect width="16" height="16" fill="white"/>
</clipPath>
</defs>
</svg>
