<svg width="16" height="17" viewBox="0 0 16 17" fill="none" xmlns="http://www.w3.org/2000/svg">
<path d="M2.66669 8.1429C2.66669 8.84329 2.80464 9.53681 3.07266 10.1839C3.34069 10.831 3.73354 11.4189 4.22878 11.9141C4.72403 12.4094 5.31197 12.8022 5.95904 13.0703C6.60611 13.3383 7.29964 13.4762 8.00002 13.4762C8.7004 13.4762 9.39393 13.3383 10.041 13.0703C10.6881 12.8022 11.276 12.4094 11.7713 11.9141C12.2665 11.4189 12.6594 10.831 12.9274 10.1839C13.1954 9.53681 13.3334 8.84329 13.3334 8.1429C13.3334 6.72842 12.7714 5.37186 11.7713 4.37167C10.7711 3.37147 9.41451 2.80957 8.00002 2.80957C6.58553 2.80957 5.22898 3.37147 4.22878 4.37167C3.22859 5.37186 2.66669 6.72842 2.66669 8.1429Z" fill="white" stroke="#912421" stroke-linecap="round" stroke-linejoin="round"/>
<path d="M8 5.18018V8.14314L9.77778 9.92092" fill="white"/>
<path d="M8 5.18018V8.14314L9.77778 9.92092" stroke="#912421" stroke-linecap="round" stroke-linejoin="round"/>
</svg>
