<?xml version="1.0" encoding="UTF-8"?><svg id="_Layer_" xmlns="http://www.w3.org/2000/svg" viewBox="0 0 267.34 135.69"><path d="M.12,88.39V.41h42.17c15.9,0,24.79,4.45,32.34,11.72,7.81,8.08,11.99,19.4,11.99,32.2s-4.58,25.2-12.93,33.28c-7.55,6.74-15.49,10.78-31.39,10.78H.12ZM41.62,74.91c11.18,0,14.96-2.56,20.21-6.87,5.66-5.66,9.03-14.28,9.03-23.71s-2.96-17.38-8.49-23.04c-4.99-4.58-9.7-7.41-20.75-7.41H15.21v61.03h26.41Z"/><path d="M106.56,88.39V.41h15.09v87.98h-15.09Z"/><path d="M148.73,88.39V.41h42.17c15.9,0,24.79,4.45,32.34,11.72,7.81,8.08,11.99,19.4,11.99,32.2s-4.58,25.2-12.93,33.28c-7.54,6.74-15.49,10.78-31.39,10.78h-42.17ZM190.23,74.91c11.18,0,14.96-2.56,20.21-6.87,5.66-5.66,9.03-14.28,9.03-23.71s-2.96-17.38-8.49-23.04c-4.99-4.58-9.7-7.41-20.75-7.41h-26.41v61.03h26.41Z"/><path d="M236.78,0h12.34v2.52h-4.62v11.21h-3.11V2.52h-4.62V0ZM264.24,13.73V5.5h-.13l-3.99,6.76h-.38l-3.99-6.76h-.13v8.23h-2.94V0h3.11l4.24,7.35h.04l4.28-7.35h2.98v13.73h-3.11Z"/><path d="M0,135.05v-22.14h10.41c4.07,0,6.71,1.15,8.68,3.15,1.93,2,2.98,4.78,2.98,7.9s-1.12,6.14-3.19,8.17c-1.9,1.8-4.31,2.92-8.48,2.92H0ZM10.24,130.88c2.54,0,3.59-.58,4.75-1.59,1.29-1.29,2.03-3.05,2.03-5.29,0-2.1-.64-3.87-1.86-5.12-1.12-1.12-2.31-1.76-4.92-1.76h-5.39v13.77h5.39Z"/><path d="M34.04,117.96c5.39,0,9.05,3.83,9.05,8.75s-3.66,8.85-9.05,8.85-8.98-3.93-8.98-8.85,3.63-8.75,8.98-8.75ZM34.04,131.83c2.81,0,4.44-2.37,4.44-5.12s-1.63-4.98-4.44-4.98-4.34,2.27-4.34,4.98,1.59,5.12,4.34,5.12Z"/><path d="M55.71,135.05v-22.14h4.85v22.14h-4.85Z"/><path d="M64.28,118.5h2.88v-4.68h4.51v4.68h4.07v3.36h-4.07v8.58c0,1.02.64,1.46,1.8,1.46.64,0,1.53-.13,2.1-.24l.34,3.39c-.64.51-2.71.64-3.59.64-2.44,0-5.15-1.22-5.15-4.92v-8.92h-2.88v-3.36Z"/><path d="M88.32,135.05v-22.14h10.41c4.07,0,6.71,1.15,8.68,3.15,1.93,2,2.98,4.78,2.98,7.9s-1.12,6.14-3.19,8.17c-1.9,1.8-4.31,2.92-8.48,2.92h-10.41ZM98.56,130.88c2.54,0,3.59-.58,4.75-1.59,1.29-1.29,2.03-3.05,2.03-5.29,0-2.1-.64-3.87-1.86-5.12-1.12-1.12-2.31-1.76-4.92-1.76h-5.39v13.77h5.39Z"/><path d="M116.6,111.01c1.53,0,2.71,1.15,2.71,2.47s-1.19,2.41-2.71,2.41-2.68-1.08-2.68-2.41,1.15-2.47,2.68-2.47ZM114.36,135.05v-16.55h4.51v16.55h-4.51Z"/><path d="M141.35,118.5h4.07v3.36h-4.07v13.19h-4.51v-13.19h-6.88v13.19h-4.51v-13.19h-2.85v-3.36h2.85v-2.61c0-3.73,2.81-4.95,5.36-4.95,1.12,0,2.88.27,3.49.58l-.47,3.46c-.61-.2-1.8-.37-2.31-.37-.95,0-1.56.47-1.56,1.29v2.61h6.88v-2.61c0-3.73,2.81-4.95,5.36-4.95,1.12,0,2.88.27,3.49.58l-.47,3.46c-.61-.2-1.8-.37-2.3-.37-.95,0-1.56.47-1.56,1.29v2.61Z"/><path d="M163.62,133.12c-1.83,1.39-4.81,2.44-7.8,2.44-5.59,0-8.65-4-8.65-8.65,0-5.02,3.66-8.95,8.78-8.95,4.04,0,8.31,2.44,8.31,8.54,0,.27,0,.61-.07,1.39h-12.58c.37,2.34,2,4.03,4.78,4.03,1.8,0,3.76-.71,5.08-1.7l2.14,2.88ZM151.72,124.88h7.97c-.03-2.34-2.03-3.46-3.76-3.46-2.41,0-3.7,1.59-4.21,3.46Z"/><path d="M172.88,124.4v10.65h-4.54v-11.87c0-1.39-.14-2.85-.47-4.68h4.14c.14.71.27,1.63.34,2.48,1.02-1.7,2.2-3.02,4.34-3.02.85,0,1.97.24,2.54.68l-1.25,4.14c-.51-.2-1.63-.47-2.24-.47-1.19,0-1.93.92-2.85,2.1Z"/><path d="M196.51,133.12c-1.83,1.39-4.81,2.44-7.8,2.44-5.59,0-8.65-4-8.65-8.65,0-5.02,3.66-8.95,8.78-8.95,4.03,0,8.31,2.44,8.31,8.54,0,.27,0,.61-.07,1.39h-12.58c.37,2.34,2,4.03,4.78,4.03,1.8,0,3.76-.71,5.09-1.7l2.14,2.88ZM184.61,124.88h7.97c-.03-2.34-2.03-3.46-3.76-3.46-2.41,0-3.7,1.59-4.2,3.46Z"/><path d="M210.79,117.96c3.36,0,6.04,2.51,6.04,5.97v11.12h-4.54v-10.95c0-1.25-1.12-2.31-2.75-2.31s-2.85,1.08-3.8,2.14v11.12h-4.51v-11.83c0-1.39-.1-2.88-.47-4.71h4.14c.14.64.27,1.39.34,2.17,1.25-1.49,2.98-2.71,5.56-2.71Z"/><path d="M220.01,118.5h2.88v-4.68h4.51v4.68h4.07v3.36h-4.07v8.58c0,1.02.64,1.46,1.8,1.46.64,0,1.53-.13,2.1-.24l.34,3.39c-.64.51-2.71.64-3.59.64-2.44,0-5.15-1.22-5.15-4.92v-8.92h-2.88v-3.36Z"/><circle cx="248.76" cy="79.77" r="8.62"/></svg>