<svg width="24" height="25" viewBox="0 0 24 25" fill="none" xmlns="http://www.w3.org/2000/svg">
<path fill-rule="evenodd" clip-rule="evenodd" d="M20.25 9.48828C20.664 9.48828 21 9.83628 21 10.2383C21 10.6523 20.6565 10.9883 20.25 10.9883H3.75C3.55169 10.9863 3.36206 10.9067 3.22183 10.7665C3.0816 10.6262 3.00195 10.4366 3 10.2383C3 9.82428 3.3435 9.48828 3.75 9.48828H20.25ZM20.25 13.9883C20.664 13.9883 21 14.3363 21 14.7383C21 15.1523 20.6565 15.4883 20.25 15.4883H3.75C3.55169 15.4863 3.36206 15.4067 3.22183 15.2665C3.0816 15.1262 3.00195 14.9366 3 14.7383C3 14.3243 3.3435 13.9883 3.75 13.9883H20.25Z" fill="#757575"/>
</svg>
