<svg width="16" height="17" viewBox="0 0 16 17" fill="none" xmlns="http://www.w3.org/2000/svg">
<path d="M8 4.10742C8.41421 4.10742 8.75 3.77164 8.75 3.35742C8.75 2.94321 8.41421 2.60742 8 2.60742C7.58579 2.60742 7.25 2.94321 7.25 3.35742C7.25 3.77164 7.58579 4.10742 8 4.10742Z" fill="black" stroke="black" stroke-width="1.5" stroke-linecap="round" stroke-linejoin="round"/>
<path d="M8 9.60742C8.41421 9.60742 8.75 9.27164 8.75 8.85742C8.75 8.44321 8.41421 8.10742 8 8.10742C7.58579 8.10742 7.25 8.44321 7.25 8.85742C7.25 9.27164 7.58579 9.60742 8 9.60742Z" fill="black" stroke="black" stroke-width="1.5" stroke-linecap="round" stroke-linejoin="round"/>
<path d="M8 15.1074C8.41421 15.1074 8.75 14.7716 8.75 14.3574C8.75 13.9432 8.41421 13.6074 8 13.6074C7.58579 13.6074 7.25 13.9432 7.25 14.3574C7.25 14.7716 7.58579 15.1074 8 15.1074Z" fill="black" stroke="black" stroke-width="1.5" stroke-linecap="round" stroke-linejoin="round"/>
</svg>
