<svg width="24" height="25" viewBox="0 0 24 25" fill="none" xmlns="http://www.w3.org/2000/svg">
<path d="M12 5.01807C12.6213 5.01807 13.125 4.51439 13.125 3.89307C13.125 3.27175 12.6213 2.76807 12 2.76807C11.3787 2.76807 10.875 3.27175 10.875 3.89307C10.875 4.51439 11.3787 5.01807 12 5.01807Z" fill="white" stroke="white" stroke-width="1.5" stroke-linecap="round" stroke-linejoin="round"/>
<path d="M12 13.2681C12.6213 13.2681 13.125 12.7644 13.125 12.1431C13.125 11.5217 12.6213 11.0181 12 11.0181C11.3787 11.0181 10.875 11.5217 10.875 12.1431C10.875 12.7644 11.3787 13.2681 12 13.2681Z" fill="white" stroke="white" stroke-width="1.5" stroke-linecap="round" stroke-linejoin="round"/>
<path d="M12 21.5181C12.6213 21.5181 13.125 21.0144 13.125 20.3931C13.125 19.7717 12.6213 19.2681 12 19.2681C11.3787 19.2681 10.875 19.7717 10.875 20.3931C10.875 21.0144 11.3787 21.5181 12 21.5181Z" fill="white" stroke="white" stroke-width="1.5" stroke-linecap="round" stroke-linejoin="round"/>
</svg>
