<svg width="24" height="25" viewBox="0 0 24 25" fill="none" xmlns="http://www.w3.org/2000/svg">
<path d="M2.40002 4.6975C2.40002 3.7039 3.20522 2.8999 4.20002 2.8999H5.40002C6.39242 2.8999 7.19882 3.7039 7.19882 4.6975V20.2759C7.19882 21.2683 6.39242 22.0723 5.39882 22.0723H4.19882C3.20522 22.0723 2.40002 21.2683 2.40002 20.2759V4.6975ZM4.20002 4.0975C4.04089 4.0975 3.88828 4.16072 3.77576 4.27324C3.66324 4.38576 3.60002 4.53837 3.60002 4.6975V20.2759C3.60034 20.4348 3.6637 20.5871 3.77618 20.6994C3.88867 20.8117 4.0411 20.8747 4.20002 20.8747H5.40002C5.55895 20.8744 5.71125 20.811 5.82351 20.6985C5.93578 20.5861 5.99882 20.4336 5.99882 20.2747V4.6987C5.99882 4.53957 5.93561 4.38696 5.82309 4.27444C5.71057 4.16192 5.55795 4.0987 5.39882 4.0987L4.20002 4.0975ZM8.39762 4.6975C8.39762 3.7039 9.20402 2.8999 10.1976 2.8999H11.3976C12.3912 2.8999 13.1964 3.7039 13.1964 4.6975V20.2759C13.1964 21.2683 12.3912 22.0723 11.3964 22.0723H10.1964C9.20402 22.0723 8.39762 21.2683 8.39762 20.2759V4.6975ZM10.1976 4.0975C10.0385 4.0975 9.88588 4.16072 9.77336 4.27324C9.66084 4.38576 9.59762 4.53837 9.59762 4.6975V20.2759C9.59794 20.4348 9.6613 20.5871 9.77378 20.6994C9.88627 20.8117 10.0387 20.8747 10.1976 20.8747H11.3976C11.5568 20.8747 11.7094 20.8115 11.8219 20.699C11.9344 20.5864 11.9976 20.4338 11.9976 20.2747V4.6987C11.9976 4.53957 11.9344 4.38696 11.8219 4.27444C11.7094 4.16192 11.5568 4.0987 11.3976 4.0987L10.1976 4.0975ZM18.8616 7.8883C18.8068 7.65075 18.7043 7.42682 18.5603 7.23008C18.4163 7.03334 18.2339 6.8679 18.0241 6.74379C17.8142 6.61968 17.5814 6.53949 17.3396 6.50809C17.0978 6.47669 16.8522 6.49472 16.6176 6.5611L15.7236 6.8131C15.2874 6.93708 14.9141 7.22112 14.6783 7.60846C14.4424 7.9958 14.3615 8.45787 14.4516 8.9023L16.8552 20.6623C16.9043 20.9006 17.0012 21.1265 17.1401 21.3264C17.279 21.5262 17.457 21.6958 17.6632 21.8249C17.8695 21.954 18.0998 22.0399 18.3402 22.0775C18.5807 22.1151 18.8262 22.1035 19.062 22.0435L20.244 21.7435C21.192 21.5035 21.7728 20.5507 21.5544 19.5991L18.8616 7.8883ZM16.944 7.7143C17.0222 7.69204 17.1041 7.6859 17.1848 7.69626C17.2654 7.70662 17.3431 7.73325 17.4131 7.77455C17.4831 7.81585 17.544 7.87095 17.5921 7.9365C17.6402 8.00206 17.6745 8.0767 17.6928 8.1559L20.3844 19.8679C20.419 20.0204 20.3927 20.1803 20.3111 20.3136C20.2295 20.447 20.0991 20.5432 19.9476 20.5819L18.7656 20.8819C18.6871 20.9019 18.6053 20.9058 18.5252 20.8933C18.4451 20.8808 18.3683 20.8523 18.2996 20.8093C18.2309 20.7664 18.1715 20.7099 18.1252 20.6434C18.0789 20.5769 18.0465 20.5017 18.03 20.4223L15.6264 8.6623C15.5965 8.51427 15.6235 8.36039 15.702 8.23138C15.7805 8.10236 15.9048 8.00771 16.05 7.9663L16.944 7.7143Z" fill="#B31A16"/>
<path d="M10.1976 4.0975C10.0385 4.0975 9.88588 4.16072 9.77336 4.27324C9.66084 4.38576 9.59762 4.53837 9.59762 4.6975V20.2759C9.59794 20.4348 9.6613 20.5871 9.77378 20.6994C9.88627 20.8117 10.0387 20.8747 10.1976 20.8747H11.3976C11.5568 20.8747 11.7094 20.8115 11.8219 20.699C11.9344 20.5864 11.9976 20.4338 11.9976 20.2747V4.6987C11.9976 4.53957 11.9344 4.38696 11.8219 4.27444C11.7094 4.16192 11.5568 4.0987 11.3976 4.0987L10.1976 4.0975Z" fill="#B31A16"/>
<path d="M16.944 7.7143C17.0222 7.69204 17.1041 7.6859 17.1848 7.69626C17.2654 7.70662 17.3431 7.73325 17.4131 7.77455C17.4831 7.81585 17.544 7.87095 17.5921 7.9365C17.6402 8.00206 17.6745 8.0767 17.6928 8.1559L20.3844 19.8679C20.419 20.0204 20.3927 20.1803 20.3111 20.3136C20.2295 20.447 20.0991 20.5432 19.9476 20.5819L18.7656 20.8819C18.6871 20.9019 18.6053 20.9058 18.5252 20.8933C18.4451 20.8808 18.3683 20.8523 18.2996 20.8093C18.2309 20.7664 18.1715 20.7099 18.1252 20.6434C18.0789 20.5769 18.0465 20.5017 18.03 20.4223L15.6264 8.6623C15.5965 8.51427 15.6235 8.36039 15.702 8.23138C15.7805 8.10236 15.9048 8.00771 16.05 7.9663L16.944 7.7143Z" fill="#B31A16"/>
<path d="M4.20002 4.0975C4.04089 4.0975 3.88828 4.16072 3.77576 4.27324C3.66324 4.38576 3.60002 4.53837 3.60002 4.6975V20.2759C3.60034 20.4348 3.6637 20.5871 3.77618 20.6994C3.88867 20.8117 4.0411 20.8747 4.20002 20.8747H5.40002C5.55895 20.8744 5.71125 20.811 5.82351 20.6985C5.93578 20.5861 5.99882 20.4336 5.99882 20.2747V4.6987C5.99882 4.53957 5.93561 4.38696 5.82309 4.27444C5.71057 4.16192 5.55795 4.0987 5.39882 4.0987L4.20002 4.0975Z" fill="#B31A16"/>
</svg>
