<svg width="24" height="24" viewBox="0 0 24 24" fill="none" xmlns="http://www.w3.org/2000/svg">
<path d="M2.39999 4.1975C2.39999 3.2039 3.20519 2.3999 4.19999 2.3999H5.39999C6.39239 2.3999 7.19879 3.2039 7.19879 4.1975V19.7759C7.19879 20.7683 6.39239 21.5723 5.39879 21.5723H4.19879C3.20519 21.5723 2.39999 20.7683 2.39999 19.7759V4.1975ZM4.19999 3.5975C4.04086 3.5975 3.88825 3.66072 3.77573 3.77324C3.66321 3.88576 3.59999 4.03837 3.59999 4.1975V19.7759C3.60031 19.9348 3.66367 20.0871 3.77615 20.1994C3.88864 20.3117 4.04107 20.3747 4.19999 20.3747H5.39999C5.55892 20.3744 5.71122 20.311 5.82348 20.1985C5.93574 20.0861 5.99879 19.9336 5.99879 19.7747V4.1987C5.99879 4.03957 5.93558 3.88696 5.82306 3.77444C5.71054 3.66192 5.55792 3.5987 5.39879 3.5987L4.19999 3.5975ZM8.39759 4.1975C8.39759 3.2039 9.20399 2.3999 10.1976 2.3999H11.3976C12.3912 2.3999 13.1964 3.2039 13.1964 4.1975V19.7759C13.1964 20.7683 12.3912 21.5723 11.3964 21.5723H10.1964C9.20399 21.5723 8.39759 20.7683 8.39759 19.7759V4.1975ZM10.1976 3.5975C10.0385 3.5975 9.88585 3.66072 9.77333 3.77324C9.66081 3.88576 9.59759 4.03837 9.59759 4.1975V19.7759C9.59791 19.9348 9.66127 20.0871 9.77375 20.1994C9.88624 20.3117 10.0387 20.3747 10.1976 20.3747H11.3976C11.5567 20.3747 11.7093 20.3115 11.8219 20.199C11.9344 20.0864 11.9976 19.9338 11.9976 19.7747V4.1987C11.9976 4.03957 11.9344 3.88696 11.8219 3.77444C11.7093 3.66192 11.5567 3.5987 11.3976 3.5987L10.1976 3.5975ZM18.8616 7.3883C18.8068 7.15075 18.7043 6.92682 18.5603 6.73008C18.4163 6.53334 18.2339 6.3679 18.024 6.24379C17.8142 6.11968 17.5813 6.03949 17.3396 6.00809C17.0978 5.97669 16.8522 5.99472 16.6176 6.0611L15.7236 6.3131C15.2874 6.43708 14.9141 6.72113 14.6782 7.10846C14.4424 7.4958 14.3615 7.95787 14.4516 8.4023L16.8552 20.1623C16.9043 20.4006 17.0012 20.6265 17.1401 20.8264C17.279 21.0262 17.4569 21.1958 17.6632 21.3249C17.8695 21.454 18.0998 21.5399 18.3402 21.5775C18.5806 21.6151 18.8262 21.6035 19.062 21.5435L20.244 21.2435C21.192 21.0035 21.7728 20.0507 21.5544 19.0991L18.8616 7.3883ZM16.944 7.2143C17.0222 7.19204 17.1041 7.1859 17.1847 7.19626C17.2654 7.20662 17.343 7.23325 17.4131 7.27455C17.4831 7.31585 17.544 7.37095 17.5921 7.4365C17.6402 7.50206 17.6744 7.5767 17.6928 7.6559L20.3844 19.3679C20.4189 19.5204 20.3926 19.6803 20.3111 19.8136C20.2295 19.947 20.0991 20.0432 19.9476 20.0819L18.7656 20.3819C18.687 20.4019 18.6052 20.4058 18.5251 20.3933C18.4451 20.3808 18.3683 20.3523 18.2996 20.3093C18.2308 20.2664 18.1715 20.2099 18.1252 20.1434C18.0788 20.0769 18.0465 20.0017 18.03 19.9223L15.6264 8.1623C15.5964 8.01427 15.6234 7.86039 15.7019 7.73138C15.7805 7.60236 15.9047 7.50771 16.05 7.4663L16.944 7.2143Z" fill="#0F0F0F"/>
</svg>
