<svg width="24" height="24" viewBox="0 0 24 24" fill="none" xmlns="http://www.w3.org/2000/svg">
<path d="M2.40002 4.1975C2.40002 3.2039 3.20522 2.3999 4.20002 2.3999H5.40002C6.39242 2.3999 7.19882 3.2039 7.19882 4.1975V19.7759C7.19882 20.7683 6.39242 21.5723 5.39882 21.5723H4.19882C3.20522 21.5723 2.40002 20.7683 2.40002 19.7759V4.1975ZM4.20002 3.5975C4.04089 3.5975 3.88828 3.66072 3.77576 3.77324C3.66324 3.88576 3.60002 4.03837 3.60002 4.1975V19.7759C3.60034 19.9348 3.6637 20.0871 3.77618 20.1994C3.88867 20.3117 4.0411 20.3747 4.20002 20.3747H5.40002C5.55895 20.3744 5.71125 20.311 5.82351 20.1985C5.93578 20.0861 5.99882 19.9336 5.99882 19.7747V4.1987C5.99882 4.03957 5.93561 3.88696 5.82309 3.77444C5.71057 3.66192 5.55795 3.5987 5.39882 3.5987L4.20002 3.5975ZM8.39762 4.1975C8.39762 3.2039 9.20402 2.3999 10.1976 2.3999H11.3976C12.3912 2.3999 13.1964 3.2039 13.1964 4.1975V19.7759C13.1964 20.7683 12.3912 21.5723 11.3964 21.5723H10.1964C9.20402 21.5723 8.39762 20.7683 8.39762 19.7759V4.1975ZM10.1976 3.5975C10.0385 3.5975 9.88588 3.66072 9.77336 3.77324C9.66084 3.88576 9.59762 4.03837 9.59762 4.1975V19.7759C9.59794 19.9348 9.6613 20.0871 9.77378 20.1994C9.88627 20.3117 10.0387 20.3747 10.1976 20.3747H11.3976C11.5568 20.3747 11.7094 20.3115 11.8219 20.199C11.9344 20.0864 11.9976 19.9338 11.9976 19.7747V4.1987C11.9976 4.03957 11.9344 3.88696 11.8219 3.77444C11.7094 3.66192 11.5568 3.5987 11.3976 3.5987L10.1976 3.5975ZM18.8616 7.3883C18.8068 7.15075 18.7043 6.92682 18.5603 6.73008C18.4163 6.53334 18.2339 6.3679 18.0241 6.24379C17.8142 6.11968 17.5814 6.03949 17.3396 6.00809C17.0978 5.97669 16.8522 5.99472 16.6176 6.0611L15.7236 6.3131C15.2874 6.43708 14.9141 6.72112 14.6783 7.10846C14.4424 7.4958 14.3615 7.95787 14.4516 8.4023L16.8552 20.1623C16.9043 20.4006 17.0012 20.6265 17.1401 20.8264C17.279 21.0262 17.457 21.1958 17.6632 21.3249C17.8695 21.454 18.0998 21.5399 18.3402 21.5775C18.5807 21.6151 18.8262 21.6035 19.062 21.5435L20.244 21.2435C21.192 21.0035 21.7728 20.0507 21.5544 19.0991L18.8616 7.3883ZM16.944 7.2143C17.0222 7.19204 17.1041 7.1859 17.1848 7.19626C17.2654 7.20662 17.3431 7.23325 17.4131 7.27455C17.4831 7.31585 17.544 7.37095 17.5921 7.4365C17.6402 7.50206 17.6745 7.5767 17.6928 7.6559L20.3844 19.3679C20.419 19.5204 20.3927 19.6803 20.3111 19.8136C20.2295 19.947 20.0991 20.0432 19.9476 20.0819L18.7656 20.3819C18.6871 20.4019 18.6053 20.4058 18.5252 20.3933C18.4451 20.3808 18.3683 20.3523 18.2996 20.3093C18.2309 20.2664 18.1715 20.2099 18.1252 20.1434C18.0789 20.0769 18.0465 20.0017 18.03 19.9223L15.6264 8.1623C15.5965 8.01427 15.6235 7.86039 15.702 7.73138C15.7805 7.60236 15.9048 7.50771 16.05 7.4663L16.944 7.2143Z" fill="#0F0F0F"/>
<path d="M10.1976 3.5975C10.0385 3.5975 9.88588 3.66072 9.77336 3.77324C9.66084 3.88576 9.59762 4.03837 9.59762 4.1975V19.7759C9.59794 19.9348 9.6613 20.0871 9.77378 20.1994C9.88627 20.3117 10.0387 20.3747 10.1976 20.3747H11.3976C11.5568 20.3747 11.7094 20.3115 11.8219 20.199C11.9344 20.0864 11.9976 19.9338 11.9976 19.7747V4.1987C11.9976 4.03957 11.9344 3.88696 11.8219 3.77444C11.7094 3.66192 11.5568 3.5987 11.3976 3.5987L10.1976 3.5975Z" fill="#0F0F0F"/>
<path d="M16.944 7.2143C17.0222 7.19204 17.1041 7.1859 17.1848 7.19626C17.2654 7.20662 17.3431 7.23325 17.4131 7.27455C17.4831 7.31585 17.544 7.37095 17.5921 7.4365C17.6402 7.50206 17.6745 7.5767 17.6928 7.6559L20.3844 19.3679C20.419 19.5204 20.3927 19.6803 20.3111 19.8136C20.2295 19.947 20.0991 20.0432 19.9476 20.0819L18.7656 20.3819C18.6871 20.4019 18.6053 20.4058 18.5252 20.3933C18.4451 20.3808 18.3683 20.3523 18.2996 20.3093C18.2309 20.2664 18.1715 20.2099 18.1252 20.1434C18.0789 20.0769 18.0465 20.0017 18.03 19.9223L15.6264 8.1623C15.5965 8.01427 15.6235 7.86039 15.702 7.73138C15.7805 7.60236 15.9048 7.50771 16.05 7.4663L16.944 7.2143Z" fill="#0F0F0F"/>
<path d="M4.20002 3.5975C4.04089 3.5975 3.88828 3.66072 3.77576 3.77324C3.66324 3.88576 3.60002 4.03837 3.60002 4.1975V19.7759C3.60034 19.9348 3.6637 20.0871 3.77618 20.1994C3.88867 20.3117 4.0411 20.3747 4.20002 20.3747H5.40002C5.55895 20.3744 5.71125 20.311 5.82351 20.1985C5.93578 20.0861 5.99882 19.9336 5.99882 19.7747V4.1987C5.99882 4.03957 5.93561 3.88696 5.82309 3.77444C5.71057 3.66192 5.55795 3.5987 5.39882 3.5987L4.20002 3.5975Z" fill="#0F0F0F"/>
</svg>
