<svg width="48" height="48" viewBox="0 0 48 48" fill="none" xmlns="http://www.w3.org/2000/svg">
<circle cx="24" cy="24" r="24" fill="#CC1E19"/>
<path d="M16 30C16 28.9391 16.4214 27.9217 17.1716 27.1716C17.9217 26.4214 18.9391 26 20 26H28C29.0609 26 30.0783 26.4214 30.8284 27.1716C31.5786 27.9217 32 28.9391 32 30C32 30.5304 31.7893 31.0391 31.4142 31.4142C31.0391 31.7893 30.5304 32 30 32H18C17.4696 32 16.9609 31.7893 16.5858 31.4142C16.2107 31.0391 16 30.5304 16 30Z" fill="white" stroke="white" stroke-width="2" stroke-linejoin="round"/>
<path d="M24 22C25.6569 22 27 20.6569 27 19C27 17.3431 25.6569 16 24 16C22.3431 16 21 17.3431 21 19C21 20.6569 22.3431 22 24 22Z" fill="white" stroke="white" stroke-width="2"/>
</svg>
