<svg width="24" height="24" viewBox="0 0 24 24" fill="none" xmlns="http://www.w3.org/2000/svg">
<path d="M21.75 6H2.25C1.83 6 1.5 5.67 1.5 5.25C1.5 4.83 1.83 4.5 2.25 4.5H21.75C22.17 4.5 22.5 4.83 22.5 5.25C22.5 5.67 22.17 6 21.75 6Z" fill="#0F0F0F"/>
<path d="M16.53 5.71486L15.87 3.52486C15.8246 3.36908 15.7299 3.23223 15.6 3.13486C15.4702 3.0375 15.3123 2.98486 15.15 2.98486H8.85003C8.68775 2.98486 8.52985 3.0375 8.40003 3.13486C8.27021 3.23223 8.17547 3.36908 8.13003 3.52486L7.47003 5.71486L6.03003 5.27986L6.69003 3.08986C6.97503 2.12986 7.84503 1.48486 8.85003 1.48486H15.15C16.155 1.48486 17.01 2.12986 17.31 3.08986L17.97 5.27986L16.53 5.71486Z" fill="#0F0F0F"/>
<path d="M17.295 22.5001H6.70501C5.49001 22.5001 4.50001 21.5401 4.45501 20.3251L3.94501 5.5201L5.44501 5.4751L5.95501 20.2801C5.95501 20.6851 6.30001 21.0001 6.70501 21.0001H17.31C17.715 21.0001 18.045 20.6851 18.06 20.2801L18.57 5.4751L20.07 5.5201L19.56 20.3251C19.515 21.5401 18.525 22.5001 17.31 22.5001H17.295Z" fill="#0F0F0F"/>
<path d="M9.75 17.4302C9.33 17.4302 9 17.1002 9 16.6802V10.6802C9 10.2602 9.33 9.93018 9.75 9.93018C10.17 9.93018 10.5 10.2602 10.5 10.6802V16.6802C10.5 17.1002 10.17 17.4302 9.75 17.4302ZM14.25 17.4302C13.83 17.4302 13.5 17.1002 13.5 16.6802V10.6802C13.5 10.2602 13.83 9.93018 14.25 9.93018C14.67 9.93018 15 10.2602 15 10.6802V16.6802C15 17.1002 14.67 17.4302 14.25 17.4302Z" fill="#0F0F0F"/>
</svg>
