<svg width="25" height="24" viewBox="0 0 25 24" fill="none" xmlns="http://www.w3.org/2000/svg">
<path d="M16.5 13.5H17.25C17.25 13.3011 17.171 13.1103 17.0303 12.9697C16.8897 12.829 16.6989 12.75 16.5 12.75V13.5ZM16.5 10.5V11.25C16.6989 11.25 16.8897 11.171 17.0303 11.0303C17.171 10.8897 17.25 10.6989 17.25 10.5H16.5ZM8.5 13.5V12.75C8.30109 12.75 8.11032 12.829 7.96967 12.9697C7.82902 13.1103 7.75 13.3011 7.75 13.5H8.5ZM8.5 10.5H7.75C7.75 10.914 8.086 11.25 8.5 11.25V10.5ZM21.75 10V14H23.25V10H21.75ZM19.5 16.25C19.024 16.25 18.704 16.25 18.457 16.233C18.216 16.216 18.099 16.187 18.022 16.155L17.448 17.541C17.738 17.661 18.038 17.708 18.355 17.729C18.665 17.75 19.045 17.75 19.5 17.75V16.25ZM15.75 13.5C15.75 13.961 15.75 14.454 15.77 14.88C15.78 15.093 15.796 15.301 15.821 15.489C15.845 15.665 15.884 15.871 15.959 16.052L17.345 15.478L17.333 15.433C17.3225 15.3843 17.3138 15.3353 17.307 15.286C17.2877 15.1276 17.2747 14.9685 17.268 14.809C17.2525 14.3728 17.2465 13.9364 17.25 13.5H15.75ZM18.022 16.155C17.8702 16.0922 17.7323 16.0001 17.6161 15.8839C17.4999 15.7677 17.4078 15.6298 17.345 15.478L15.959 16.052C16.0972 16.3858 16.2998 16.6892 16.5553 16.9447C16.8108 17.2002 17.1142 17.4028 17.448 17.541L18.022 16.155ZM21.75 14C21.75 14.476 21.75 14.796 21.733 15.043C21.716 15.284 21.687 15.401 21.655 15.478L23.041 16.052C23.161 15.762 23.208 15.462 23.229 15.145C23.25 14.835 23.25 14.455 23.25 14H21.75ZM19.5 17.75C19.956 17.75 20.335 17.75 20.645 17.73C20.962 17.708 21.262 17.661 21.552 17.54L20.978 16.155C20.901 16.187 20.784 16.216 20.543 16.233C20.296 16.25 19.976 16.25 19.5 16.25V17.75ZM21.655 15.478C21.5922 15.6298 21.5001 15.7677 21.3839 15.8839C21.2677 16.0001 21.1298 16.0922 20.978 16.155L21.552 17.54C21.8858 17.4018 22.1892 17.2002 22.4447 16.9447C22.7002 16.6892 22.9028 16.3858 23.041 16.052L21.655 15.478ZM19.5 7.75C19.976 7.75 20.296 7.75 20.543 7.767C20.784 7.784 20.901 7.813 20.978 7.845L21.552 6.459C21.262 6.339 20.962 6.292 20.645 6.271C20.335 6.25 19.955 6.25 19.5 6.25V7.75ZM23.25 10C23.25 9.544 23.25 9.165 23.23 8.855C23.2175 8.54421 23.1543 8.23768 23.041 7.948L21.655 8.522C21.687 8.599 21.716 8.716 21.733 8.957C21.75 9.204 21.75 9.524 21.75 10H23.25ZM20.978 7.845C21.285 7.972 21.528 8.215 21.655 8.522L23.041 7.948C22.9028 7.61416 22.7002 7.31082 22.4447 7.05533C22.1892 6.79984 21.8858 6.5972 21.552 6.459L20.978 7.845ZM19.5 6.25C19.044 6.25 18.665 6.25 18.355 6.27C18.0442 6.28252 17.7377 6.34573 17.448 6.459L18.022 7.845C18.099 7.813 18.216 7.784 18.457 7.767C18.704 7.75 19.024 7.75 19.5 7.75V6.25ZM17.25 10.5C17.25 10.03 17.25 9.574 17.268 9.191C17.2773 9.00033 17.2907 8.84133 17.308 8.714C17.316 8.652 17.3243 8.603 17.333 8.567L17.345 8.522L15.959 7.948C15.8894 8.1291 15.8431 8.31826 15.821 8.511C15.7951 8.71349 15.7781 8.91702 15.77 9.121C15.75 9.546 15.75 10.039 15.75 10.5H17.25ZM17.448 6.459C17.1143 6.59709 16.811 6.80057 16.5555 7.05589C16.3 7.3112 16.0973 7.61434 15.959 7.948L17.345 8.522C17.472 8.215 17.715 7.972 18.022 7.845L17.448 6.459ZM3.25 14V10H1.75V14H3.25ZM5.5 16.25C5.024 16.25 4.704 16.25 4.457 16.233C4.216 16.216 4.099 16.187 4.022 16.155L3.448 17.541C3.738 17.661 4.038 17.708 4.355 17.729C4.665 17.75 5.045 17.75 5.5 17.75V16.25ZM1.75 14C1.75 14.456 1.75 14.835 1.77 15.145C1.792 15.463 1.84 15.762 1.96 16.052L3.345 15.478C3.313 15.401 3.284 15.284 3.267 15.043C3.25067 14.6956 3.245 14.3478 3.25 14H1.75ZM4.022 16.155C3.8702 16.0922 3.73228 16.0001 3.61611 15.8839C3.49995 15.7677 3.40782 15.6298 3.345 15.478L1.959 16.052C2.0972 16.3858 2.29984 16.6892 2.55533 16.9447C2.81082 17.2002 3.11416 17.4028 3.448 17.541L4.022 16.155ZM7.75 13.5C7.75 13.97 7.75 14.426 7.732 14.809C7.72267 14.9997 7.70933 15.1587 7.692 15.286C7.6855 15.3353 7.67716 15.3843 7.667 15.433L7.655 15.478L9.041 16.052C9.116 15.871 9.155 15.665 9.179 15.489C9.204 15.301 9.22 15.093 9.23 14.879C9.25 14.454 9.25 13.961 9.25 13.5H7.75ZM5.5 17.75C5.956 17.75 6.335 17.75 6.645 17.73C6.962 17.708 7.262 17.662 7.552 17.541L6.978 16.155C6.901 16.187 6.784 16.216 6.543 16.233C6.19559 16.2493 5.84776 16.255 5.5 16.25V17.75ZM7.655 15.478C7.59218 15.6298 7.50005 15.7677 7.38389 15.8839C7.26772 16.0001 7.1298 16.0922 6.978 16.155L7.552 17.541C7.88584 17.4028 8.18918 17.2002 8.44467 16.9447C8.70016 16.6892 8.9028 16.3858 9.041 16.052L7.655 15.478ZM5.5 7.75C5.976 7.75 6.296 7.75 6.543 7.767C6.784 7.784 6.901 7.813 6.978 7.845L7.552 6.459C7.262 6.339 6.962 6.292 6.645 6.271C6.335 6.25 5.955 6.25 5.5 6.25V7.75ZM9.25 10.5C9.25 10.039 9.25 9.546 9.23 9.12C9.22187 8.91635 9.20486 8.71316 9.179 8.511C9.15693 8.31826 9.11056 8.1291 9.041 7.948L7.655 8.522L7.667 8.567C7.675 8.60233 7.68367 8.65133 7.693 8.714C7.71234 8.87242 7.72535 9.03154 7.732 9.191C7.75 9.574 7.75 10.029 7.75 10.5H9.25ZM6.978 7.845C7.285 7.972 7.528 8.215 7.655 8.522L9.041 7.948C8.9028 7.61416 8.70016 7.31082 8.44467 7.05533C8.18918 6.79984 7.88584 6.5972 7.552 6.459L6.978 7.845ZM5.5 6.25C5.044 6.25 4.665 6.25 4.355 6.27C4.04421 6.28252 3.73768 6.34573 3.448 6.459L4.022 7.845C4.099 7.813 4.216 7.784 4.457 7.767C4.80441 7.75067 5.15224 7.745 5.5 7.75V6.25ZM3.25 10C3.25 9.524 3.25 9.204 3.267 8.957C3.284 8.716 3.313 8.599 3.345 8.522L1.96 7.948C1.84 8.238 1.793 8.538 1.772 8.855C1.751 9.165 1.751 9.545 1.751 10H3.25ZM3.448 6.459C3.11425 6.59709 2.81097 6.80057 2.55549 7.05589C2.3 7.3112 2.09731 7.61434 1.959 7.948L3.345 8.522C3.472 8.215 3.715 7.972 4.022 7.845L3.448 6.459ZM8.5 11.25H16.5V9.75H8.5V11.25ZM16.5 12.75H8.5V14.25H16.5V12.75Z" fill="#0F0F0F"/>
<path d="M17.0303 12.9697C17.171 13.1103 17.25 13.3011 17.25 13.5C17.2465 13.9364 17.2525 14.3728 17.268 14.809C17.2747 14.9685 17.2877 15.1276 17.307 15.286C17.3138 15.3353 17.3225 15.3843 17.333 15.433L17.345 15.478C17.4078 15.6298 17.4999 15.7677 17.6161 15.8839C17.7323 16.0001 17.8702 16.0922 18.022 16.155C18.099 16.187 18.216 16.216 18.457 16.233C18.704 16.25 19.024 16.25 19.5 16.25C19.976 16.25 20.296 16.25 20.543 16.233C20.784 16.216 20.901 16.187 20.978 16.155C21.1298 16.0922 21.2677 16.0001 21.3839 15.8839C21.5001 15.7677 21.5922 15.6298 21.655 15.478C21.687 15.401 21.716 15.284 21.733 15.043C21.75 14.796 21.75 14.476 21.75 14V10C21.75 9.524 21.75 9.204 21.733 8.957C21.716 8.716 21.687 8.599 21.655 8.522C21.528 8.215 21.285 7.972 20.978 7.845C20.901 7.813 20.784 7.784 20.543 7.767C20.296 7.75 19.976 7.75 19.5 7.75C19.024 7.75 18.704 7.75 18.457 7.767C18.216 7.784 18.099 7.813 18.022 7.845C17.715 7.972 17.472 8.215 17.345 8.522L17.333 8.567C17.3243 8.603 17.316 8.652 17.308 8.714C17.2907 8.84133 17.2773 9.00033 17.268 9.191C17.25 9.574 17.25 10.03 17.25 10.5C17.25 10.6989 17.171 10.8897 17.0303 11.0303C16.8897 11.171 16.6989 11.25 16.5 11.25H8.5C8.086 11.25 7.75 10.914 7.75 10.5C7.75 10.029 7.75 9.574 7.732 9.191C7.72535 9.03154 7.71234 8.87242 7.693 8.714C7.68367 8.65133 7.675 8.60233 7.667 8.567L7.655 8.522C7.528 8.215 7.285 7.972 6.978 7.845C6.901 7.813 6.784 7.784 6.543 7.767C6.296 7.75 5.976 7.75 5.5 7.75C5.15224 7.745 4.80441 7.75067 4.457 7.767C4.216 7.784 4.099 7.813 4.022 7.845C3.715 7.972 3.472 8.215 3.345 8.522C3.313 8.599 3.284 8.716 3.267 8.957C3.25 9.204 3.25 9.524 3.25 10V14C3.245 14.3478 3.25067 14.6956 3.267 15.043C3.284 15.284 3.313 15.401 3.345 15.478C3.40782 15.6298 3.49995 15.7677 3.61611 15.8839C3.73228 16.0001 3.8702 16.0922 4.022 16.155C4.099 16.187 4.216 16.216 4.457 16.233C4.704 16.25 5.024 16.25 5.5 16.25C5.84776 16.255 6.19559 16.2493 6.543 16.233C6.784 16.216 6.901 16.187 6.978 16.155C7.1298 16.0922 7.26772 16.0001 7.38389 15.8839C7.50005 15.7677 7.59218 15.6298 7.655 15.478L7.667 15.433C7.67716 15.3843 7.6855 15.3353 7.692 15.286C7.70933 15.1587 7.72267 14.9997 7.732 14.809C7.75 14.426 7.75 13.97 7.75 13.5C7.75 13.3011 7.82902 13.1103 7.96967 12.9697C8.11032 12.829 8.30109 12.75 8.5 12.75H16.5C16.6989 12.75 16.8897 12.829 17.0303 12.9697Z" fill="#0F0F0F"/>
</svg>
