<svg width="24" height="25" viewBox="0 0 24 25" fill="none" xmlns="http://www.w3.org/2000/svg">
<path d="M16 14H16.75C16.75 13.8011 16.671 13.6103 16.5303 13.4697C16.3897 13.329 16.1989 13.25 16 13.25V14ZM16 11V11.75C16.1989 11.75 16.3897 11.671 16.5303 11.5303C16.671 11.3897 16.75 11.1989 16.75 11H16ZM8 14V13.25C7.80109 13.25 7.61032 13.329 7.46967 13.4697C7.32902 13.6103 7.25 13.8011 7.25 14H8ZM8 11H7.25C7.25 11.414 7.586 11.75 8 11.75V11ZM21.25 10.5V14.5H22.75V10.5H21.25ZM19 16.75C18.524 16.75 18.204 16.75 17.957 16.733C17.716 16.716 17.599 16.687 17.522 16.655L16.948 18.041C17.238 18.161 17.538 18.208 17.855 18.229C18.165 18.25 18.545 18.25 19 18.25V16.75ZM15.25 14C15.25 14.461 15.25 14.954 15.27 15.38C15.28 15.593 15.296 15.801 15.321 15.989C15.345 16.165 15.384 16.371 15.459 16.552L16.845 15.978L16.833 15.933C16.8225 15.8843 16.8138 15.8353 16.807 15.786C16.7877 15.6276 16.7747 15.4685 16.768 15.309C16.7525 14.8728 16.7465 14.4364 16.75 14H15.25ZM17.522 16.655C17.3702 16.5922 17.2323 16.5001 17.1161 16.3839C16.9999 16.2677 16.9078 16.1298 16.845 15.978L15.459 16.552C15.5972 16.8858 15.7998 17.1892 16.0553 17.4447C16.3108 17.7002 16.6142 17.9028 16.948 18.041L17.522 16.655ZM21.25 14.5C21.25 14.976 21.25 15.296 21.233 15.543C21.216 15.784 21.187 15.901 21.155 15.978L22.541 16.552C22.661 16.262 22.708 15.962 22.729 15.645C22.75 15.335 22.75 14.955 22.75 14.5H21.25ZM19 18.25C19.456 18.25 19.835 18.25 20.145 18.23C20.462 18.208 20.762 18.161 21.052 18.04L20.478 16.655C20.401 16.687 20.284 16.716 20.043 16.733C19.796 16.75 19.476 16.75 19 16.75V18.25ZM21.155 15.978C21.0922 16.1298 21.0001 16.2677 20.8839 16.3839C20.7677 16.5001 20.6298 16.5922 20.478 16.655L21.052 18.04C21.3858 17.9018 21.6892 17.7002 21.9447 17.4447C22.2002 17.1892 22.4028 16.8858 22.541 16.552L21.155 15.978ZM19 8.25C19.476 8.25 19.796 8.25 20.043 8.267C20.284 8.284 20.401 8.313 20.478 8.345L21.052 6.959C20.762 6.839 20.462 6.792 20.145 6.771C19.835 6.75 19.455 6.75 19 6.75V8.25ZM22.75 10.5C22.75 10.044 22.75 9.665 22.73 9.355C22.7175 9.04421 22.6543 8.73768 22.541 8.448L21.155 9.022C21.187 9.099 21.216 9.216 21.233 9.457C21.25 9.704 21.25 10.024 21.25 10.5H22.75ZM20.478 8.345C20.785 8.472 21.028 8.715 21.155 9.022L22.541 8.448C22.4028 8.11416 22.2002 7.81082 21.9447 7.55533C21.6892 7.29984 21.3858 7.0972 21.052 6.959L20.478 8.345ZM19 6.75C18.544 6.75 18.165 6.75 17.855 6.77C17.5442 6.78252 17.2377 6.84573 16.948 6.959L17.522 8.345C17.599 8.313 17.716 8.284 17.957 8.267C18.204 8.25 18.524 8.25 19 8.25V6.75ZM16.75 11C16.75 10.53 16.75 10.074 16.768 9.691C16.7773 9.50033 16.7907 9.34133 16.808 9.214C16.816 9.152 16.8243 9.103 16.833 9.067L16.845 9.022L15.459 8.448C15.3894 8.6291 15.3431 8.81826 15.321 9.011C15.2951 9.21349 15.2781 9.41702 15.27 9.621C15.25 10.046 15.25 10.539 15.25 11H16.75ZM16.948 6.959C16.6143 7.09709 16.311 7.30057 16.0555 7.55589C15.8 7.8112 15.5973 8.11434 15.459 8.448L16.845 9.022C16.972 8.715 17.215 8.472 17.522 8.345L16.948 6.959ZM2.75 14.5V10.5H1.25V14.5H2.75ZM5 16.75C4.524 16.75 4.204 16.75 3.957 16.733C3.716 16.716 3.599 16.687 3.522 16.655L2.948 18.041C3.238 18.161 3.538 18.208 3.855 18.229C4.165 18.25 4.545 18.25 5 18.25V16.75ZM1.25 14.5C1.25 14.956 1.25 15.335 1.27 15.645C1.292 15.963 1.34 16.262 1.46 16.552L2.845 15.978C2.813 15.901 2.784 15.784 2.767 15.543C2.75067 15.1956 2.745 14.8478 2.75 14.5H1.25ZM3.522 16.655C3.3702 16.5922 3.23228 16.5001 3.11611 16.3839C2.99995 16.2677 2.90782 16.1298 2.845 15.978L1.459 16.552C1.5972 16.8858 1.79984 17.1892 2.05533 17.4447C2.31082 17.7002 2.61416 17.9028 2.948 18.041L3.522 16.655ZM7.25 14C7.25 14.47 7.25 14.926 7.232 15.309C7.22267 15.4997 7.20933 15.6587 7.192 15.786C7.1855 15.8353 7.17716 15.8843 7.167 15.933L7.155 15.978L8.541 16.552C8.616 16.371 8.655 16.165 8.679 15.989C8.704 15.801 8.72 15.593 8.73 15.379C8.75 14.954 8.75 14.461 8.75 14H7.25ZM5 18.25C5.456 18.25 5.835 18.25 6.145 18.23C6.462 18.208 6.762 18.162 7.052 18.041L6.478 16.655C6.401 16.687 6.284 16.716 6.043 16.733C5.69559 16.7493 5.34776 16.755 5 16.75V18.25ZM7.155 15.978C7.09218 16.1298 7.00005 16.2677 6.88389 16.3839C6.76772 16.5001 6.6298 16.5922 6.478 16.655L7.052 18.041C7.38584 17.9028 7.68918 17.7002 7.94467 17.4447C8.20016 17.1892 8.4028 16.8858 8.541 16.552L7.155 15.978ZM5 8.25C5.476 8.25 5.796 8.25 6.043 8.267C6.284 8.284 6.401 8.313 6.478 8.345L7.052 6.959C6.762 6.839 6.462 6.792 6.145 6.771C5.835 6.75 5.455 6.75 5 6.75V8.25ZM8.75 11C8.75 10.539 8.75 10.046 8.73 9.62C8.72187 9.41635 8.70486 9.21316 8.679 9.011C8.65693 8.81826 8.61056 8.6291 8.541 8.448L7.155 9.022L7.167 9.067C7.175 9.10233 7.18367 9.15133 7.193 9.214C7.21234 9.37242 7.22535 9.53154 7.232 9.691C7.25 10.074 7.25 10.529 7.25 11H8.75ZM6.478 8.345C6.785 8.472 7.028 8.715 7.155 9.022L8.541 8.448C8.4028 8.11416 8.20016 7.81082 7.94467 7.55533C7.68918 7.29984 7.38584 7.0972 7.052 6.959L6.478 8.345ZM5 6.75C4.544 6.75 4.165 6.75 3.855 6.77C3.54421 6.78252 3.23768 6.84573 2.948 6.959L3.522 8.345C3.599 8.313 3.716 8.284 3.957 8.267C4.30441 8.25067 4.65224 8.245 5 8.25V6.75ZM2.75 10.5C2.75 10.024 2.75 9.704 2.767 9.457C2.784 9.216 2.813 9.099 2.845 9.022L1.46 8.448C1.34 8.738 1.293 9.038 1.272 9.355C1.251 9.665 1.251 10.045 1.251 10.5H2.75ZM2.948 6.959C2.61425 7.09709 2.31097 7.30057 2.05549 7.55589C1.8 7.8112 1.59731 8.11434 1.459 8.448L2.845 9.022C2.972 8.715 3.215 8.472 3.522 8.345L2.948 6.959ZM8 11.75H16V10.25H8V11.75ZM16 13.25H8V14.75H16V13.25Z" fill="#B31A16"/>
<path d="M16.5303 13.4697C16.671 13.6103 16.75 13.8011 16.75 14C16.7465 14.4364 16.7525 14.8728 16.768 15.309C16.7747 15.4685 16.7877 15.6276 16.807 15.786C16.8138 15.8353 16.8225 15.8843 16.833 15.933L16.845 15.978C16.9078 16.1298 16.9999 16.2677 17.1161 16.3839C17.2323 16.5001 17.3702 16.5922 17.522 16.655C17.599 16.687 17.716 16.716 17.957 16.733C18.204 16.75 18.524 16.75 19 16.75C19.476 16.75 19.796 16.75 20.043 16.733C20.284 16.716 20.401 16.687 20.478 16.655C20.6298 16.5922 20.7677 16.5001 20.8839 16.3839C21.0001 16.2677 21.0922 16.1298 21.155 15.978C21.187 15.901 21.216 15.784 21.233 15.543C21.25 15.296 21.25 14.976 21.25 14.5V10.5C21.25 10.024 21.25 9.704 21.233 9.457C21.216 9.216 21.187 9.099 21.155 9.022C21.028 8.715 20.785 8.472 20.478 8.345C20.401 8.313 20.284 8.284 20.043 8.267C19.796 8.25 19.476 8.25 19 8.25C18.524 8.25 18.204 8.25 17.957 8.267C17.716 8.284 17.599 8.313 17.522 8.345C17.215 8.472 16.972 8.715 16.845 9.022L16.833 9.067C16.8243 9.103 16.816 9.152 16.808 9.214C16.7907 9.34133 16.7773 9.50033 16.768 9.691C16.75 10.074 16.75 10.53 16.75 11C16.75 11.1989 16.671 11.3897 16.5303 11.5303C16.3897 11.671 16.1989 11.75 16 11.75H8C7.586 11.75 7.25 11.414 7.25 11C7.25 10.529 7.25 10.074 7.232 9.691C7.22535 9.53154 7.21234 9.37242 7.193 9.214C7.18367 9.15133 7.175 9.10233 7.167 9.067L7.155 9.022C7.028 8.715 6.785 8.472 6.478 8.345C6.401 8.313 6.284 8.284 6.043 8.267C5.796 8.25 5.476 8.25 5 8.25C4.65224 8.245 4.30441 8.25067 3.957 8.267C3.716 8.284 3.599 8.313 3.522 8.345C3.215 8.472 2.972 8.715 2.845 9.022C2.813 9.099 2.784 9.216 2.767 9.457C2.75 9.704 2.75 10.024 2.75 10.5V14.5C2.745 14.8478 2.75067 15.1956 2.767 15.543C2.784 15.784 2.813 15.901 2.845 15.978C2.90782 16.1298 2.99995 16.2677 3.11611 16.3839C3.23228 16.5001 3.3702 16.5922 3.522 16.655C3.599 16.687 3.716 16.716 3.957 16.733C4.204 16.75 4.524 16.75 5 16.75C5.34776 16.755 5.69559 16.7493 6.043 16.733C6.284 16.716 6.401 16.687 6.478 16.655C6.6298 16.5922 6.76772 16.5001 6.88389 16.3839C7.00005 16.2677 7.09218 16.1298 7.155 15.978L7.167 15.933C7.17716 15.8843 7.1855 15.8353 7.192 15.786C7.20933 15.6587 7.22267 15.4997 7.232 15.309C7.25 14.926 7.25 14.47 7.25 14C7.25 13.8011 7.32902 13.6103 7.46967 13.4697C7.61032 13.329 7.80109 13.25 8 13.25H16C16.1989 13.25 16.3897 13.329 16.5303 13.4697Z" fill="#B31A16"/>
</svg>
