<?xml version="1.0" encoding="UTF-8"?><svg xmlns="http://www.w3.org/2000/svg" viewBox="0 0 181.68 181.68"><defs><style>.cls-1{fill:#010101;}.cls-2{fill:#e1251b;font-family:SweetSansPro-Bold, 'Sweet Sans Pro';font-size:56.18px;font-weight:700;letter-spacing:-.02em;}.cls-3{fill:#fff;}</style></defs><g id="Layer_1"><rect class="cls-1" width="181.68" height="181.68" rx="12.69" ry="12.69"/><rect class="cls-3" x="12.73" y="12.73" width="156.23" height="156.23"/></g><g id="_Layer_"><text class="cls-2" transform="translate(122.27 62.87)"><tspan x="0" y="0">1</tspan></text><path class="cls-1" d="M128.24,80.93h-14.86l-16.17,23.89-15.79-24.1c10.22-4.04,17.08-14,17.08-24.57,0-6.1-2.32-11.72-6.35-15.99-5.13-5.49-12.45-8.42-23.07-8.42h-36.68v79.69h13.67v-30.63h20.54l22.82,35.5-24.27,35.86h15.74l16.05-24.16,15.53,24.16h15.74l-23.5-35.86,23.5-35.38ZM46.08,43.95h23.01c4.27,0,8.67.37,12.45,4.27,2.07,2.2,3.3,4.88,3.3,7.93,0,6.83-6.1,12.45-13.3,12.45h-25.46v-24.65Z"/></g></svg>