<?xml version="1.0" encoding="UTF-8"?><svg xmlns="http://www.w3.org/2000/svg" viewBox="0 0 181.68 181.68"><defs><style>.cls-1{fill:#010101;}.cls-2{fill:#e1251b;font-family:SweetSansPro-Bold, 'Sweet Sans Pro';font-size:56.18px;font-weight:700;letter-spacing:-.02em;}.cls-3{fill:#fff;}</style></defs><g id="Layer_1"><rect class="cls-1" y="0" width="181.68" height="181.68" rx="12.69" ry="12.69"/><rect class="cls-3" x="12.73" y="12.73" width="156.23" height="156.23"/></g><g id="_Layer_"><path class="cls-1" d="M33.98,111.44V31.75h36.68c10.62,0,17.94,2.93,23.07,8.42,4.03,4.27,6.35,9.89,6.35,15.99,0,10.74-7.08,20.87-17.57,24.78l-13.79-.12h-21.06v30.63h-13.67ZM47.65,43.95v24.65h25.46c7.2,0,13.3-5.61,13.3-12.45,0-3.05-1.22-5.74-3.3-7.93-3.78-3.91-8.18-4.27-12.45-4.27h-23.01Z"/><text class="cls-2" transform="translate(116.81 62.87)"><tspan x="0" y="0">5</tspan></text><polygon class="cls-1" points="129.8 80.93 114.95 80.93 66.74 152.17 82.49 152.17 129.8 80.93"/><polygon class="cls-1" points="68.27 80.93 83.12 80.93 129.8 152.17 114.06 152.17 68.27 80.93"/></g></svg>