<svg width="138" height="136" viewBox="0 0 138 136" fill="none" xmlns="http://www.w3.org/2000/svg">
<rect y="0.0693359" width="138" height="135.931" rx="8.36364" fill="white"/>
<rect x="12.6968" y="12.7659" width="112.606" height="110.537" rx="5.2281" fill="white" fill-opacity="0.1"/>
<rect x="12.6968" y="12.7659" width="112.606" height="110.537" rx="5.2281" stroke="#B31A16" stroke-width="1.49374"/>
<path d="M31.5393 80.5342V38.7094H51.9737C57.2316 38.7094 61.1751 39.7052 63.8041 41.6969C66.4729 43.6885 67.8073 46.3175 67.8073 49.5838C67.8073 51.7746 67.2696 53.6866 66.1941 55.3198C65.1186 56.9131 63.6448 58.148 61.7726 59.0243C59.9005 59.9006 57.7495 60.3388 55.3197 60.3388L56.4549 57.889C59.0839 57.889 61.4141 58.3272 63.4456 59.2035C65.4771 60.04 67.0505 61.2948 68.1658 62.9678C69.321 64.6408 69.8986 66.6922 69.8986 69.122C69.8986 72.707 68.4845 75.5152 65.6564 77.5467C62.8282 79.5384 58.6656 80.5342 53.1687 80.5342H31.5393ZM41.159 73.2447H52.4517C54.9612 73.2447 56.8532 72.8464 58.1279 72.0497C59.4424 71.2132 60.0996 69.8987 60.0996 68.1062C60.0996 66.3536 59.4424 65.059 58.1279 64.2225C56.8532 63.3462 54.9612 62.908 52.4517 62.908H40.442V55.8575H50.7787C53.1288 55.8575 54.9213 55.4592 56.1561 54.6626C57.4308 53.8261 58.0681 52.5713 58.0681 50.8983C58.0681 49.2652 57.4308 48.0503 56.1561 47.2536C54.9213 46.4171 53.1288 45.9988 50.7787 45.9988H41.159V73.2447ZM91.8655 81.0122C88.4398 81.0122 85.3926 80.2952 82.7238 78.8612C80.0948 77.4272 78.0035 75.4754 76.45 73.0057C74.9364 70.4962 74.1796 67.6482 74.1796 64.4615C74.1796 61.235 74.9364 58.387 76.45 55.9173C78.0035 53.4078 80.0948 51.456 82.7238 50.0618C85.3926 48.6278 88.4398 47.9108 91.8655 47.9108C95.2513 47.9108 98.2786 48.6278 100.947 50.0618C103.616 51.456 105.707 53.3879 107.221 55.8575C108.735 58.3272 109.492 61.1952 109.492 64.4615C109.492 67.6482 108.735 70.4962 107.221 73.0057C105.707 75.4754 103.616 77.4272 100.947 78.8612C98.2786 80.2952 95.2513 81.0122 91.8655 81.0122ZM91.8655 73.3642C93.419 73.3642 94.8131 73.0057 96.048 72.2887C97.2828 71.5717 98.2587 70.556 98.9757 69.2415C99.6927 67.8872 100.051 66.2938 100.051 64.4615C100.051 62.5893 99.6927 60.996 98.9757 59.6815C98.2587 58.367 97.2828 57.3513 96.048 56.6343C94.8131 55.9173 93.419 55.5588 91.8655 55.5588C90.312 55.5588 88.9178 55.9173 87.683 56.6343C86.4482 57.3513 85.4523 58.367 84.6955 59.6815C83.9785 60.996 83.62 62.5893 83.62 64.4615C83.62 66.2938 83.9785 67.8872 84.6955 69.2415C85.4523 70.556 86.4482 71.5717 87.683 72.2887C88.9178 73.0057 90.312 73.3642 91.8655 73.3642Z" fill="#B31A16"/>
<path d="M46.6545 109.534V99.078H51.554C52.8087 99.078 53.7647 99.3269 54.4219 99.8249C55.0792 100.313 55.4078 100.97 55.4078 101.797C55.4078 102.354 55.2784 102.832 55.0194 103.231C54.7605 103.619 54.412 103.923 53.9738 104.142C53.5456 104.351 53.0776 104.455 52.5697 104.455L52.8386 103.918C53.4261 103.918 53.9539 104.027 54.4219 104.246C54.89 104.455 55.2584 104.764 55.5273 105.172C55.8061 105.581 55.9456 106.089 55.9456 106.696C55.9456 107.592 55.602 108.289 54.9149 108.787C54.2278 109.285 53.207 109.534 51.8527 109.534H46.6545ZM48.5963 108.011H51.7332C52.4602 108.011 53.0178 107.891 53.4062 107.652C53.7946 107.413 53.9888 107.03 53.9888 106.502C53.9888 105.984 53.7946 105.606 53.4062 105.367C53.0178 105.118 52.4602 104.993 51.7332 104.993H48.447V103.485H51.3448C52.022 103.485 52.5398 103.365 52.8983 103.126C53.2668 102.887 53.451 102.529 53.451 102.051C53.451 101.563 53.2668 101.199 52.8983 100.96C52.5398 100.721 52.022 100.602 51.3448 100.602H48.5963V108.011ZM60.0794 109.639C59.2628 109.639 58.5358 109.464 57.8985 109.116C57.2612 108.757 56.7583 108.269 56.3898 107.652C56.0214 107.035 55.8371 106.333 55.8371 105.546C55.8371 104.749 56.0214 104.047 56.3898 103.44C56.7583 102.822 57.2612 102.339 57.8985 101.991C58.5358 101.642 59.2628 101.468 60.0794 101.468C60.9059 101.468 61.6379 101.642 62.2752 101.991C62.9225 102.339 63.4254 102.817 63.7839 103.425C64.1523 104.032 64.3365 104.739 64.3365 105.546C64.3365 106.333 64.1523 107.035 63.7839 107.652C63.4254 108.269 62.9225 108.757 62.2752 109.116C61.6379 109.464 60.9059 109.639 60.0794 109.639ZM60.0794 108.04C60.5375 108.04 60.9458 107.941 61.3042 107.742C61.6627 107.543 61.9416 107.254 62.1407 106.875C62.3499 106.497 62.4544 106.054 62.4544 105.546C62.4544 105.028 62.3499 104.585 62.1407 104.216C61.9416 103.838 61.6627 103.549 61.3042 103.35C60.9458 103.151 60.5424 103.051 60.0943 103.051C59.6362 103.051 59.2279 103.151 58.8694 103.35C58.5209 103.549 58.2421 103.838 58.033 104.216C57.8238 104.585 57.7193 105.028 57.7193 105.546C57.7193 106.054 57.8238 106.497 58.033 106.875C58.2421 107.254 58.5209 107.543 58.8694 107.742C59.2279 107.941 59.6313 108.04 60.0794 108.04ZM63.4247 109.534L66.935 104.963L66.9051 105.964L63.5591 101.558H65.6354L67.9806 104.694H67.1889L69.549 101.558H71.5656L68.1897 105.964L68.2046 104.963L71.7 109.534H69.5938L67.1291 106.203L67.9059 106.308L65.486 109.534H63.4247ZM71.7335 109.534V101.558H73.6007V109.534H71.7335ZM72.6746 100.243C72.326 100.243 72.0372 100.134 71.8082 99.9145C71.5891 99.6954 71.4796 99.4315 71.4796 99.1228C71.4796 98.8041 71.5891 98.5402 71.8082 98.3311C72.0372 98.112 72.326 98.0025 72.6746 98.0025C73.0231 98.0025 73.3069 98.107 73.526 98.3162C73.755 98.5153 73.8695 98.7693 73.8695 99.078C73.8695 99.4066 73.76 99.6854 73.5409 99.9145C73.3218 100.134 73.033 100.243 72.6746 100.243ZM79.233 101.468C79.8703 101.468 80.438 101.592 80.9359 101.841C81.4438 102.09 81.8421 102.474 82.1309 102.992C82.4197 103.499 82.5641 104.157 82.5641 104.963V109.534H80.6969V105.202C80.6969 104.495 80.5276 103.967 80.189 103.619C79.8604 103.27 79.3973 103.096 78.7998 103.096C78.3617 103.096 77.9733 103.186 77.6347 103.365C77.2961 103.544 77.0322 103.813 76.843 104.172C76.6638 104.52 76.5742 104.963 76.5742 105.501V109.534H74.707V101.558H76.4845V103.709L76.1708 103.051C76.4497 102.543 76.853 102.155 77.3808 101.886C77.9185 101.607 78.5359 101.468 79.233 101.468ZM87.2178 112.537C86.4809 112.537 85.7589 112.437 85.0518 112.238C84.3548 112.049 83.7822 111.77 83.334 111.401L84.1705 109.997C84.5191 110.286 84.9572 110.515 85.485 110.684C86.0228 110.864 86.5655 110.953 87.1132 110.953C87.9895 110.953 88.6318 110.749 89.0401 110.341C89.4484 109.942 89.6526 109.34 89.6526 108.533V107.114L89.8019 105.307L89.7422 103.499V101.558H91.5198V108.324C91.5198 109.768 91.1513 110.829 90.4144 111.506C89.6775 112.193 88.6119 112.537 87.2178 112.537ZM86.9788 109.176C86.2219 109.176 85.5348 109.016 84.9174 108.698C84.31 108.369 83.827 107.916 83.4685 107.338C83.1199 106.761 82.9457 106.084 82.9457 105.307C82.9457 104.54 83.1199 103.868 83.4685 103.29C83.827 102.713 84.31 102.265 84.9174 101.946C85.5348 101.627 86.2219 101.468 86.9788 101.468C87.6559 101.468 88.2634 101.602 88.8011 101.871C89.3389 102.14 89.7671 102.558 90.0858 103.126C90.4144 103.694 90.5787 104.421 90.5787 105.307C90.5787 106.193 90.4144 106.925 90.0858 107.503C89.7671 108.07 89.3389 108.494 88.8011 108.772C88.2634 109.041 87.6559 109.176 86.9788 109.176ZM87.2626 107.592C87.7306 107.592 88.1489 107.498 88.5173 107.309C88.8858 107.109 89.1696 106.84 89.3688 106.502C89.5779 106.153 89.6824 105.755 89.6824 105.307C89.6824 104.859 89.5779 104.465 89.3688 104.127C89.1696 103.778 88.8858 103.514 88.5173 103.335C88.1489 103.146 87.7306 103.051 87.2626 103.051C86.7945 103.051 86.3713 103.146 85.9929 103.335C85.6244 103.514 85.3357 103.778 85.1265 104.127C84.9274 104.465 84.8278 104.859 84.8278 105.307C84.8278 105.755 84.9274 106.153 85.1265 106.502C85.3357 106.84 85.6244 107.109 85.9929 107.309C86.3713 107.498 86.7945 107.592 87.2626 107.592Z" fill="#B31A16"/>
</svg>
