<svg width="139" height="136" viewBox="0 0 139 136" fill="none" xmlns="http://www.w3.org/2000/svg">
<rect x="0.5" y="0.0693359" width="138" height="135.931" rx="8.36364" fill="white"/>
<rect x="13.1968" y="12.7659" width="112.606" height="110.537" rx="5.2281" fill="white" fill-opacity="0.1"/>
<rect x="13.1968" y="12.7659" width="112.606" height="110.537" rx="5.2281" stroke="#B31A16" stroke-width="1.49374"/>
<path d="M55.4688 81.2512C52.2423 81.2512 49.2349 80.7333 46.4466 79.6977C43.6981 78.6222 41.3081 77.1085 39.2766 75.1567C37.2452 73.2049 35.6518 70.9145 34.4967 68.2855C33.3813 65.6565 32.8237 62.7686 32.8237 59.6218C32.8237 56.475 33.3813 53.5871 34.4967 50.9581C35.6518 48.3291 37.2452 46.0387 39.2766 44.0869C41.348 42.135 43.7579 40.6413 46.5064 39.6056C49.2548 38.5301 52.2623 37.9924 55.5286 37.9924C59.1534 37.9924 62.4197 38.6297 65.3275 39.9044C68.2752 41.1392 70.7448 42.9715 72.7365 45.4013L66.5225 51.1373C65.0885 49.5042 63.4952 48.2892 61.7425 47.4926C59.9899 46.6561 58.0779 46.2378 56.0066 46.2378C54.0547 46.2378 52.2623 46.5565 50.6291 47.1938C48.9959 47.8312 47.5819 48.7473 46.3869 49.9423C45.1919 51.1373 44.2558 52.5514 43.5786 54.1846C42.9413 55.8177 42.6226 57.6301 42.6226 59.6218C42.6226 61.6134 42.9413 63.4258 43.5786 65.059C44.2558 66.6922 45.1919 68.1062 46.3869 69.3012C47.5819 70.4962 48.9959 71.4124 50.6291 72.0497C52.2623 72.6871 54.0547 73.0057 56.0066 73.0057C58.0779 73.0057 59.9899 72.6074 61.7425 71.8107C63.4952 70.9742 65.0885 69.7195 66.5225 68.0465L72.7365 73.7825C70.7448 76.2123 68.2752 78.0645 65.3275 79.3392C62.4197 80.6138 59.1335 81.2512 55.4688 81.2512ZM93.0421 81.0122C89.5766 81.0122 86.4895 80.3151 83.7808 78.9209C81.0722 77.4869 78.9411 75.5152 77.3876 73.0057C75.874 70.4962 75.1171 67.6482 75.1171 64.4615C75.1171 61.235 75.874 58.387 77.3876 55.9173C78.9411 53.4078 81.0722 51.456 83.7808 50.0618C86.4895 48.6278 89.5766 47.9108 93.0421 47.9108C96.4279 47.9108 99.3755 48.6278 101.885 50.0618C104.394 51.456 106.247 53.4676 107.442 56.0965L100.212 59.9803C99.3755 58.4666 98.3199 57.3513 97.0453 56.6343C95.8105 55.9173 94.4561 55.5588 92.9823 55.5588C91.389 55.5588 89.955 55.9173 88.6803 56.6343C87.4057 57.3513 86.3899 58.367 85.6331 59.6815C84.9161 60.996 84.5576 62.5893 84.5576 64.4615C84.5576 66.3337 84.9161 67.927 85.6331 69.2415C86.3899 70.556 87.4057 71.5717 88.6803 72.2887C89.955 73.0057 91.389 73.3642 92.9823 73.3642C94.4561 73.3642 95.8105 73.0256 97.0453 72.3485C98.3199 71.6315 99.3755 70.4962 100.212 68.9427L107.442 72.8862C106.247 75.4754 104.394 77.4869 101.885 78.9209C99.3755 80.3151 96.4279 81.0122 93.0421 81.0122Z" fill="#B31A16"/>
<path d="M30.7438 109.684C29.9472 109.684 29.2053 109.554 28.5182 109.295C27.841 109.026 27.2485 108.653 26.7406 108.175C26.2427 107.687 25.8543 107.114 25.5755 106.457C25.2967 105.8 25.1572 105.083 25.1572 104.306C25.1572 103.529 25.2967 102.812 25.5755 102.155C25.8543 101.498 26.2477 100.93 26.7556 100.452C27.2634 99.9643 27.8559 99.5908 28.5331 99.3319C29.2103 99.063 29.9522 98.9286 30.7588 98.9286C31.6152 98.9286 32.3969 99.078 33.104 99.3767C33.811 99.6655 34.4085 100.099 34.8965 100.676L33.6417 101.856C33.2633 101.448 32.8401 101.144 32.372 100.945C31.904 100.736 31.3961 100.631 30.8484 100.631C30.3007 100.631 29.7978 100.721 29.3397 100.9C28.8916 101.08 28.4983 101.334 28.1597 101.662C27.831 101.991 27.5721 102.379 27.3829 102.827C27.2037 103.275 27.1141 103.768 27.1141 104.306C27.1141 104.844 27.2037 105.337 27.3829 105.785C27.5721 106.233 27.831 106.621 28.1597 106.95C28.4983 107.279 28.8916 107.533 29.3397 107.712C29.7978 107.891 30.3007 107.981 30.8484 107.981C31.3961 107.981 31.904 107.881 32.372 107.682C32.8401 107.473 33.2633 107.159 33.6417 106.741L34.8965 107.936C34.4085 108.503 33.811 108.937 33.104 109.235C32.3969 109.534 31.6102 109.684 30.7438 109.684ZM38.5121 109.639C37.6955 109.639 36.9686 109.464 36.3313 109.116C35.6939 108.757 35.191 108.269 34.8226 107.652C34.4541 107.035 34.2699 106.333 34.2699 105.546C34.2699 104.749 34.4541 104.047 34.8226 103.44C35.191 102.822 35.6939 102.339 36.3313 101.991C36.9686 101.642 37.6955 101.468 38.5121 101.468C39.3387 101.468 40.0706 101.642 40.7079 101.991C41.3552 102.339 41.8581 102.817 42.2166 103.425C42.5851 104.032 42.7693 104.739 42.7693 105.546C42.7693 106.333 42.5851 107.035 42.2166 107.652C41.8581 108.269 41.3552 108.757 40.7079 109.116C40.0706 109.464 39.3387 109.639 38.5121 109.639ZM38.5121 108.04C38.9702 108.04 39.3785 107.941 39.737 107.742C40.0955 107.543 40.3743 107.254 40.5735 106.875C40.7826 106.497 40.8872 106.054 40.8872 105.546C40.8872 105.028 40.7826 104.585 40.5735 104.216C40.3743 103.838 40.0955 103.549 39.737 103.35C39.3785 103.151 38.9752 103.051 38.5271 103.051C38.069 103.051 37.6607 103.151 37.3022 103.35C36.9537 103.549 36.6748 103.838 36.4657 104.216C36.2566 104.585 36.152 105.028 36.152 105.546C36.152 106.054 36.2566 106.497 36.4657 106.875C36.6748 107.254 36.9537 107.543 37.3022 107.742C37.6607 107.941 38.064 108.04 38.5121 108.04ZM43.2104 109.534V101.558H44.988V103.753L44.7788 103.111C45.0178 102.573 45.3913 102.165 45.8992 101.886C46.417 101.607 47.0593 101.468 47.8261 101.468V103.246C47.7464 103.226 47.6717 103.216 47.602 103.216C47.5323 103.206 47.4626 103.201 47.3929 103.201C46.6859 103.201 46.1232 103.41 45.705 103.828C45.2867 104.236 45.0776 104.849 45.0776 105.665V109.534H43.2104ZM51.742 109.639C50.8557 109.639 50.079 109.464 49.4118 109.116C48.7545 108.757 48.2417 108.269 47.8732 107.652C47.5147 107.035 47.3355 106.333 47.3355 105.546C47.3355 104.749 47.5097 104.047 47.8583 103.44C48.2168 102.822 48.7047 102.339 49.3222 101.991C49.9495 101.642 50.6615 101.468 51.4582 101.468C52.235 101.468 52.9271 101.637 53.5345 101.976C54.142 102.314 54.62 102.792 54.9685 103.41C55.317 104.027 55.4913 104.754 55.4913 105.591C55.4913 105.67 55.4863 105.76 55.4764 105.86C55.4764 105.959 55.4714 106.054 55.4614 106.143H48.8143V104.904H54.4756L53.7436 105.292C53.7536 104.834 53.659 104.431 53.4598 104.082C53.2607 103.733 52.9868 103.46 52.6383 103.26C52.2997 103.061 51.9063 102.962 51.4582 102.962C51.0001 102.962 50.5968 103.061 50.2483 103.26C49.9097 103.46 49.6408 103.738 49.4417 104.097C49.2524 104.445 49.1578 104.859 49.1578 105.337V105.636C49.1578 106.114 49.2674 106.537 49.4865 106.905C49.7055 107.274 50.0143 107.557 50.4126 107.757C50.8109 107.956 51.269 108.055 51.7868 108.055C52.235 108.055 52.6383 107.986 52.9968 107.846C53.3553 107.707 53.6739 107.488 53.9528 107.189L54.9536 108.339C54.5951 108.757 54.142 109.081 53.5943 109.31C53.0565 109.529 52.4391 109.639 51.742 109.639ZM62.384 109.639C61.5475 109.639 60.8006 109.464 60.1434 109.116C59.4961 108.757 58.9882 108.269 58.6198 107.652C58.2513 107.035 58.0671 106.333 58.0671 105.546C58.0671 104.749 58.2513 104.047 58.6198 103.44C58.9882 102.822 59.4961 102.339 60.1434 101.991C60.8006 101.642 61.5475 101.468 62.384 101.468C63.1607 101.468 63.8429 101.627 64.4304 101.946C65.0279 102.255 65.481 102.713 65.7897 103.32L64.3557 104.157C64.1167 103.778 63.823 103.499 63.4744 103.32C63.1359 103.141 62.7674 103.051 62.3691 103.051C61.911 103.051 61.4977 103.151 61.1293 103.35C60.7608 103.549 60.472 103.838 60.2629 104.216C60.0538 104.585 59.9492 105.028 59.9492 105.546C59.9492 106.064 60.0538 106.512 60.2629 106.89C60.472 107.259 60.7608 107.543 61.1293 107.742C61.4977 107.941 61.911 108.04 62.3691 108.04C62.7674 108.04 63.1359 107.951 63.4744 107.772C63.823 107.592 64.1167 107.313 64.3557 106.935L65.7897 107.772C65.481 108.369 65.0279 108.832 64.4304 109.161C63.8429 109.479 63.1607 109.639 62.384 109.639ZM66.0594 109.534V101.558H67.837V103.753L67.6279 103.111C67.8669 102.573 68.2403 102.165 68.7482 101.886C69.266 101.607 69.9083 101.468 70.6751 101.468V103.246C70.5954 103.226 70.5207 103.216 70.451 103.216C70.3813 103.206 70.3116 103.201 70.2419 103.201C69.5349 103.201 68.9722 103.41 68.554 103.828C68.1357 104.236 67.9266 104.849 67.9266 105.665V109.534H66.0594ZM74.3635 109.639C73.6863 109.639 73.0888 109.514 72.571 109.265C72.0531 109.006 71.6498 108.618 71.361 108.1C71.0723 107.572 70.9279 106.91 70.9279 106.114V101.558H72.795V105.86C72.795 106.577 72.9544 107.114 73.273 107.473C73.6017 107.821 74.0647 107.996 74.6622 107.996C75.1004 107.996 75.4788 107.906 75.7975 107.727C76.1261 107.548 76.38 107.279 76.5593 106.92C76.7485 106.562 76.8431 106.118 76.8431 105.591V101.558H78.7103V109.534H76.9327V107.383L77.2464 108.04C76.9775 108.558 76.5842 108.957 76.0663 109.235C75.5485 109.504 74.9809 109.639 74.3635 109.639ZM82.2753 109.639C81.6081 109.639 80.9658 109.554 80.3484 109.385C79.7409 109.206 79.2579 108.991 78.8994 108.742L79.6164 107.323C79.9749 107.552 80.4031 107.742 80.901 107.891C81.399 108.04 81.8969 108.115 82.3948 108.115C82.9823 108.115 83.4056 108.035 83.6645 107.876C83.9333 107.717 84.0678 107.503 84.0678 107.234C84.0678 107.015 83.9782 106.85 83.7989 106.741C83.6197 106.621 83.3856 106.532 83.0968 106.472C82.8081 106.412 82.4844 106.357 82.1259 106.308C81.7774 106.258 81.4239 106.193 81.0654 106.114C80.7168 106.024 80.3982 105.899 80.1094 105.74C79.8206 105.571 79.5866 105.347 79.4073 105.068C79.2281 104.789 79.1384 104.421 79.1384 103.963C79.1384 103.455 79.2828 103.016 79.5716 102.648C79.8604 102.27 80.2637 101.981 80.7815 101.782C81.3093 101.573 81.9317 101.468 82.6487 101.468C83.1865 101.468 83.7292 101.528 84.2769 101.647C84.8246 101.767 85.2777 101.936 85.6362 102.155L84.9192 103.574C84.5408 103.345 84.1574 103.191 83.769 103.111C83.3906 103.021 83.0122 102.977 82.6338 102.977C82.0662 102.977 81.6429 103.061 81.3641 103.231C81.0952 103.4 80.9608 103.614 80.9608 103.873C80.9608 104.112 81.0504 104.291 81.2297 104.411C81.4089 104.53 81.6429 104.625 81.9317 104.694C82.2205 104.764 82.5392 104.824 82.8877 104.874C83.2462 104.914 83.5997 104.978 83.9483 105.068C84.2968 105.158 84.6155 105.282 84.9043 105.441C85.203 105.591 85.442 105.805 85.6213 106.084C85.8005 106.362 85.8901 106.726 85.8901 107.174C85.8901 107.672 85.7408 108.105 85.442 108.474C85.1532 108.842 84.74 109.131 84.2022 109.34C83.6645 109.539 83.0222 109.639 82.2753 109.639ZM90.6798 101.468C91.3171 101.468 91.8848 101.592 92.3827 101.841C92.8905 102.09 93.2889 102.474 93.5777 102.992C93.8665 103.499 94.0109 104.157 94.0109 104.963V109.534H92.1437V105.202C92.1437 104.495 91.9744 103.967 91.6358 103.619C91.3072 103.27 90.8441 103.096 90.2466 103.096C89.8085 103.096 89.4201 103.186 89.0815 103.365C88.7429 103.544 88.479 103.813 88.2898 104.172C88.1106 104.52 88.0209 104.963 88.0209 105.501V109.534H86.1538V98.4506H88.0209V103.709L87.6176 103.051C87.8965 102.543 88.2998 102.155 88.8276 101.886C89.3653 101.607 89.9827 101.468 90.6798 101.468ZM98.799 109.639C97.9127 109.639 97.136 109.464 96.4688 109.116C95.8115 108.757 95.2987 108.269 94.9302 107.652C94.5717 107.035 94.3925 106.333 94.3925 105.546C94.3925 104.749 94.5667 104.047 94.9153 103.44C95.2738 102.822 95.7617 102.339 96.3791 101.991C97.0065 101.642 97.7185 101.468 98.5152 101.468C99.2919 101.468 99.984 101.637 100.591 101.976C101.199 102.314 101.677 102.792 102.025 103.41C102.374 104.027 102.548 104.754 102.548 105.591C102.548 105.67 102.543 105.76 102.533 105.86C102.533 105.959 102.528 106.054 102.518 106.143H95.8713V104.904H101.533L100.801 105.292C100.811 104.834 100.716 104.431 100.517 104.082C100.318 103.733 100.044 103.46 99.6952 103.26C99.3567 103.061 98.9633 102.962 98.5152 102.962C98.0571 102.962 97.6538 103.061 97.3053 103.26C96.9667 103.46 96.6978 103.738 96.4986 104.097C96.3094 104.445 96.2148 104.859 96.2148 105.337V105.636C96.2148 106.114 96.3244 106.537 96.5434 106.905C96.7625 107.274 97.0712 107.557 97.4696 107.757C97.8679 107.956 98.326 108.055 98.8438 108.055C99.2919 108.055 99.6952 107.986 100.054 107.846C100.412 107.707 100.731 107.488 101.01 107.189L102.011 108.339C101.652 108.757 101.199 109.081 100.651 109.31C100.113 109.529 99.4961 109.639 98.799 109.639ZM102.997 109.534V101.558H104.775V103.753L104.566 103.111C104.805 102.573 105.178 102.165 105.686 101.886C106.204 101.607 106.846 101.468 107.613 101.468V103.246C107.533 103.226 107.459 103.216 107.389 103.216C107.319 103.206 107.25 103.201 107.18 103.201C106.473 103.201 105.91 103.41 105.492 103.828C105.074 104.236 104.865 104.849 104.865 105.665V109.534H102.997ZM110.39 109.639C109.723 109.639 109.081 109.554 108.463 109.385C107.856 109.206 107.373 108.991 107.014 108.742L107.731 107.323C108.09 107.552 108.518 107.742 109.016 107.891C109.514 108.04 110.012 108.115 110.51 108.115C111.097 108.115 111.521 108.035 111.78 107.876C112.048 107.717 112.183 107.503 112.183 107.234C112.183 107.015 112.093 106.85 111.914 106.741C111.735 106.621 111.501 106.532 111.212 106.472C110.923 106.412 110.599 106.357 110.241 106.308C109.892 106.258 109.539 106.193 109.18 106.114C108.832 106.024 108.513 105.899 108.224 105.74C107.936 105.571 107.702 105.347 107.522 105.068C107.343 104.789 107.253 104.421 107.253 103.963C107.253 103.455 107.398 103.016 107.687 102.648C107.975 102.27 108.379 101.981 108.897 101.782C109.424 101.573 110.047 101.468 110.764 101.468C111.302 101.468 111.844 101.528 112.392 101.647C112.94 101.767 113.393 101.936 113.751 102.155L113.034 103.574C112.656 103.345 112.272 103.191 111.884 103.111C111.506 103.021 111.127 102.977 110.749 102.977C110.181 102.977 109.758 103.061 109.479 103.231C109.21 103.4 109.076 103.614 109.076 103.873C109.076 104.112 109.165 104.291 109.345 104.411C109.524 104.53 109.758 104.625 110.047 104.694C110.336 104.764 110.654 104.824 111.003 104.874C111.361 104.914 111.715 104.978 112.063 105.068C112.412 105.158 112.731 105.282 113.019 105.441C113.318 105.591 113.557 105.805 113.736 106.084C113.916 106.362 114.005 106.726 114.005 107.174C114.005 107.672 113.856 108.105 113.557 108.474C113.268 108.842 112.855 109.131 112.317 109.34C111.78 109.539 111.137 109.639 110.39 109.639Z" fill="#B31A16"/>
</svg>
