<svg width="138" height="136" viewBox="0 0 138 136" fill="none" xmlns="http://www.w3.org/2000/svg">
<rect y="0.0693359" width="138" height="135.931" rx="8.36364" fill="white"/>
<rect x="12.6968" y="12.7659" width="112.606" height="110.537" rx="5.2281" fill="white" fill-opacity="0.1"/>
<rect x="12.6968" y="12.7659" width="112.606" height="110.537" rx="5.2281" stroke="#B31A16" stroke-width="1.49374"/>
<path d="M44.5803 85.4741V43.6493H54.2598V85.4741H44.5803ZM78.8244 85.9521C75.3987 85.9521 72.3515 85.2351 69.6827 83.8011C67.0537 82.3671 64.9624 80.4153 63.4089 77.9457C61.8953 75.4362 61.1384 72.5881 61.1384 69.4014C61.1384 66.175 61.8953 63.3269 63.4089 60.8572C64.9624 58.3477 67.0537 56.3959 69.6827 55.0018C72.3515 53.5678 75.3987 52.8508 78.8244 52.8508C82.2102 52.8508 85.2375 53.5678 87.9063 55.0018C90.5751 56.3959 92.6664 58.3278 94.18 60.7975C95.6937 63.2671 96.4505 66.1351 96.4505 69.4014C96.4505 72.5881 95.6937 75.4362 94.18 77.9457C92.6664 80.4153 90.5751 82.3671 87.9063 83.8011C85.2375 85.2351 82.2102 85.9521 78.8244 85.9521ZM78.8244 78.3042C80.3779 78.3042 81.772 77.9457 83.0068 77.2287C84.2417 76.5117 85.2176 75.4959 85.9346 74.1814C86.6516 72.8271 87.0101 71.2338 87.0101 69.4014C87.0101 67.5293 86.6516 65.936 85.9346 64.6215C85.2176 63.307 84.2417 62.2912 83.0068 61.5742C81.772 60.8572 80.3779 60.4987 78.8244 60.4987C77.2709 60.4987 75.8767 60.8572 74.6419 61.5742C73.4071 62.2912 72.4112 63.307 71.6544 64.6215C70.9374 65.936 70.5789 67.5293 70.5789 69.4014C70.5789 71.2338 70.9374 72.8271 71.6544 74.1814C72.4112 75.4959 73.4071 76.5117 74.6419 77.2287C75.8767 77.9457 77.2709 78.3042 78.8244 78.3042Z" fill="#B31A16"/>
<path d="M35.9041 114.474V104.018H37.846V114.474H35.9041ZM41.6152 114.579C40.948 114.579 40.3057 114.494 39.6883 114.325C39.0809 114.145 38.5979 113.931 38.2394 113.682L38.9564 112.263C39.3149 112.492 39.7431 112.682 40.241 112.831C40.7389 112.98 41.2368 113.055 41.7347 113.055C42.3223 113.055 42.7455 112.975 43.0044 112.816C43.2733 112.657 43.4077 112.443 43.4077 112.174C43.4077 111.955 43.3181 111.79 43.1389 111.681C42.9596 111.561 42.7256 111.472 42.4368 111.412C42.148 111.352 41.8244 111.297 41.4659 111.248C41.1173 111.198 40.7638 111.133 40.4053 111.053C40.0568 110.964 39.7381 110.839 39.4493 110.68C39.1605 110.511 38.9265 110.287 38.7472 110.008C38.568 109.729 38.4784 109.361 38.4784 108.902C38.4784 108.395 38.6228 107.956 38.9116 107.588C39.2003 107.21 39.6037 106.921 40.1215 106.722C40.6493 106.512 41.2717 106.408 41.9887 106.408C42.5264 106.408 43.0691 106.468 43.6168 106.587C44.1646 106.707 44.6177 106.876 44.9762 107.095L44.2592 108.514C43.8807 108.285 43.4974 108.131 43.109 108.051C42.7306 107.961 42.3521 107.917 41.9737 107.917C41.4061 107.917 40.9829 108.001 40.7041 108.171C40.4352 108.34 40.3007 108.554 40.3007 108.813C40.3007 109.052 40.3904 109.231 40.5696 109.351C40.7489 109.47 40.9829 109.565 41.2717 109.634C41.5605 109.704 41.8791 109.764 42.2277 109.814C42.5862 109.853 42.9397 109.918 43.2882 110.008C43.6368 110.097 43.9554 110.222 44.2442 110.381C44.543 110.531 44.782 110.745 44.9612 111.024C45.1405 111.302 45.2301 111.666 45.2301 112.114C45.2301 112.612 45.0807 113.045 44.782 113.414C44.4932 113.782 44.0799 114.071 43.5422 114.28C43.0044 114.479 42.3621 114.579 41.6152 114.579ZM49.0787 114.579C48.2621 114.579 47.5352 114.404 46.8978 114.056C46.2605 113.697 45.7576 113.209 45.3892 112.592C45.0207 111.975 44.8365 111.273 44.8365 110.486C44.8365 109.689 45.0207 108.987 45.3892 108.38C45.7576 107.762 46.2605 107.279 46.8978 106.931C47.5352 106.582 48.2621 106.408 49.0787 106.408C49.9052 106.408 50.6372 106.582 51.2745 106.931C51.9218 107.279 52.4247 107.757 52.7832 108.365C53.1516 108.972 53.3359 109.679 53.3359 110.486C53.3359 111.273 53.1516 111.975 52.7832 112.592C52.4247 113.209 51.9218 113.697 51.2745 114.056C50.6372 114.404 49.9052 114.579 49.0787 114.579ZM49.0787 112.98C49.5368 112.98 49.9451 112.881 50.3036 112.682C50.6621 112.482 50.9409 112.194 51.1401 111.815C51.3492 111.437 51.4537 110.994 51.4537 110.486C51.4537 109.968 51.3492 109.525 51.1401 109.156C50.9409 108.778 50.6621 108.489 50.3036 108.29C49.9451 108.091 49.5418 107.991 49.0936 107.991C48.6356 107.991 48.2273 108.091 47.8688 108.29C47.5202 108.489 47.2414 108.778 47.0323 109.156C46.8231 109.525 46.7186 109.968 46.7186 110.486C46.7186 110.994 46.8231 111.437 47.0323 111.815C47.2414 112.194 47.5202 112.482 47.8688 112.682C48.2273 112.881 48.6306 112.98 49.0787 112.98ZM63.8448 106.408C64.4821 106.408 65.0448 106.532 65.5327 106.781C66.0307 107.03 66.419 107.414 66.6979 107.932C66.9767 108.439 67.1161 109.097 67.1161 109.903V114.474H65.2489V110.142C65.2489 109.435 65.0946 108.907 64.7859 108.559C64.4772 108.21 64.034 108.036 63.4564 108.036C63.0481 108.036 62.6847 108.126 62.366 108.305C62.0573 108.484 61.8133 108.748 61.6341 109.097C61.4648 109.445 61.3801 109.888 61.3801 110.426V114.474H59.513V110.142C59.513 109.435 59.3586 108.907 59.0499 108.559C58.7412 108.21 58.298 108.036 57.7205 108.036C57.3122 108.036 56.9487 108.126 56.63 108.305C56.3213 108.484 56.0773 108.748 55.8981 109.097C55.7288 109.445 55.6442 109.888 55.6442 110.426V114.474H53.777V106.498H55.5545V108.619L55.2409 107.991C55.5097 107.473 55.8981 107.08 56.406 106.811C56.9238 106.542 57.5113 106.408 58.1686 106.408C58.9155 106.408 59.5628 106.592 60.1105 106.961C60.6681 107.329 61.0366 107.887 61.2158 108.634L60.4839 108.38C60.7428 107.782 61.171 107.304 61.7685 106.946C62.366 106.587 63.0581 106.408 63.8448 106.408ZM71.9216 114.579C71.0354 114.579 70.2586 114.404 69.5914 114.056C68.9342 113.697 68.4213 113.209 68.0528 112.592C67.6944 111.975 67.5151 111.273 67.5151 110.486C67.5151 109.689 67.6894 108.987 68.0379 108.38C68.3964 107.762 68.8844 107.279 69.5018 106.931C70.1292 106.582 70.8412 106.408 71.6378 106.408C72.4146 106.408 73.1067 106.577 73.7141 106.916C74.3216 107.254 74.7996 107.732 75.1481 108.35C75.4967 108.967 75.6709 109.694 75.6709 110.531C75.6709 110.61 75.666 110.7 75.656 110.8C75.656 110.899 75.651 110.994 75.6411 111.083H68.9939V109.844H74.6552L73.9233 110.232C73.9332 109.774 73.8386 109.37 73.6394 109.022C73.4403 108.673 73.1664 108.4 72.8179 108.2C72.4793 108.001 72.086 107.902 71.6378 107.902C71.1798 107.902 70.7764 108.001 70.4279 108.2C70.0893 108.4 69.8204 108.678 69.6213 109.037C69.4321 109.385 69.3375 109.799 69.3375 110.277V110.575C69.3375 111.053 69.447 111.477 69.6661 111.845C69.8852 112.214 70.1939 112.497 70.5922 112.697C70.9905 112.896 71.4486 112.995 71.9665 112.995C72.4146 112.995 72.8179 112.926 73.1764 112.786C73.5349 112.647 73.8536 112.428 74.1324 112.129L75.1332 113.279C74.7747 113.697 74.3216 114.021 73.7739 114.25C73.2361 114.469 72.6187 114.579 71.9216 114.579ZM79.1225 114.579C78.2462 114.579 77.569 114.355 77.091 113.906C76.613 113.448 76.374 112.776 76.374 111.89V104.735H78.2412V111.845C78.2412 112.224 78.3358 112.517 78.525 112.726C78.7242 112.936 78.9981 113.04 79.3466 113.04C79.7648 113.04 80.1134 112.931 80.3922 112.712L80.915 114.041C80.6959 114.22 80.4271 114.355 80.1084 114.444C79.7897 114.534 79.4611 114.579 79.1225 114.579ZM75.0596 108.051V106.557H80.3773V108.051H75.0596ZM81.1066 114.474V106.498H82.8842V108.693L82.6751 108.051C82.9141 107.513 83.2875 107.105 83.7954 106.826C84.3132 106.547 84.9555 106.408 85.7223 106.408V108.185C85.6426 108.166 85.568 108.156 85.4982 108.156C85.4285 108.146 85.3588 108.141 85.2891 108.141C84.5821 108.141 84.0194 108.35 83.6012 108.768C83.1829 109.176 82.9738 109.789 82.9738 110.605V114.474H81.1066ZM85.9619 114.474V106.498H87.8291V114.474H85.9619ZM86.9029 105.183C86.5544 105.183 86.2656 105.073 86.0366 104.854C85.8175 104.635 85.708 104.371 85.708 104.063C85.708 103.744 85.8175 103.48 86.0366 103.271C86.2656 103.052 86.5544 102.942 86.9029 102.942C87.2515 102.942 87.5353 103.047 87.7544 103.256C87.9834 103.455 88.0979 103.709 88.0979 104.018C88.0979 104.347 87.9884 104.625 87.7693 104.854C87.5502 105.073 87.2614 105.183 86.9029 105.183ZM92.595 114.579C91.7585 114.579 91.0117 114.404 90.3544 114.056C89.7071 113.697 89.1993 113.209 88.8308 112.592C88.4624 111.975 88.2781 111.273 88.2781 110.486C88.2781 109.689 88.4624 108.987 88.8308 108.38C89.1993 107.762 89.7071 107.279 90.3544 106.931C91.0117 106.582 91.7585 106.408 92.595 106.408C93.3718 106.408 94.0539 106.567 94.6415 106.886C95.239 107.195 95.6921 107.653 96.0008 108.26L94.5668 109.097C94.3278 108.718 94.034 108.439 93.6855 108.26C93.3469 108.081 92.9784 107.991 92.5801 107.991C92.122 107.991 91.7088 108.091 91.3403 108.29C90.9718 108.489 90.6831 108.778 90.4739 109.156C90.2648 109.525 90.1602 109.968 90.1602 110.486C90.1602 111.004 90.2648 111.452 90.4739 111.83C90.6831 112.199 90.9718 112.482 91.3403 112.682C91.7088 112.881 92.122 112.98 92.5801 112.98C92.9784 112.98 93.3469 112.891 93.6855 112.712C94.034 112.532 94.3278 112.253 94.5668 111.875L96.0008 112.712C95.6921 113.309 95.239 113.772 94.6415 114.101C94.0539 114.419 93.3718 114.579 92.595 114.579ZM98.7351 114.579C98.0679 114.579 97.4256 114.494 96.8082 114.325C96.2008 114.145 95.7178 113.931 95.3593 113.682L96.0763 112.263C96.4348 112.492 96.863 112.682 97.3609 112.831C97.8588 112.98 98.3567 113.055 98.8546 113.055C99.4422 113.055 99.8654 112.975 100.124 112.816C100.393 112.657 100.528 112.443 100.528 112.174C100.528 111.955 100.438 111.79 100.259 111.681C100.08 111.561 99.8455 111.472 99.5567 111.412C99.2679 111.352 98.9443 111.297 98.5858 111.248C98.2372 111.198 97.8837 111.133 97.5252 111.053C97.1767 110.964 96.858 110.839 96.5692 110.68C96.2804 110.511 96.0464 110.287 95.8672 110.008C95.6879 109.729 95.5983 109.361 95.5983 108.902C95.5983 108.395 95.7427 107.956 96.0315 107.588C96.3203 107.21 96.7236 106.921 97.2414 106.722C97.7692 106.512 98.3916 106.408 99.1086 106.408C99.6463 106.408 100.189 106.468 100.737 106.587C101.284 106.707 101.738 106.876 102.096 107.095L101.379 108.514C101.001 108.285 100.617 108.131 100.229 108.051C99.8505 107.961 99.4721 107.917 99.0936 107.917C98.526 107.917 98.1028 108.001 97.824 108.171C97.5551 108.34 97.4206 108.554 97.4206 108.813C97.4206 109.052 97.5103 109.231 97.6895 109.351C97.8688 109.47 98.1028 109.565 98.3916 109.634C98.6804 109.704 98.999 109.764 99.3476 109.814C99.7061 109.853 100.06 109.918 100.408 110.008C100.757 110.097 101.075 110.222 101.364 110.381C101.663 110.531 101.902 110.745 102.081 111.024C102.26 111.302 102.35 111.666 102.35 112.114C102.35 112.612 102.201 113.045 101.902 113.414C101.613 113.782 101.2 114.071 100.662 114.28C100.124 114.479 99.482 114.579 98.7351 114.579Z" fill="#B31A16"/>
</svg>
