<svg width="138" height="136" viewBox="0 0 138 136" fill="none" xmlns="http://www.w3.org/2000/svg">
<rect width="138" height="135.931" rx="8.36364" fill="white"/>
<rect x="12.6968" y="12.6966" width="112.606" height="110.537" rx="5.2281" fill="white" fill-opacity="0.1"/>
<rect x="12.6968" y="12.6966" width="112.606" height="110.537" rx="5.2281" stroke="#B31A16" stroke-width="1.49374"/>
<path d="M52.6381 86.1218C49.81 86.1218 47.2009 85.604 44.8109 84.5683C42.4607 83.4928 40.5288 81.9791 39.0152 80.0273L44.3927 73.5743C45.5478 75.088 46.7627 76.2432 48.0374 77.0398C49.312 77.7967 50.6863 78.1751 52.1601 78.1751C56.1036 78.1751 58.0753 75.8647 58.0753 71.2441V51.3474H43.3769V43.58H67.695V70.7064C67.695 75.8847 66.4204 79.7485 63.8711 82.2978C61.3217 84.8471 57.5774 86.1218 52.6381 86.1218ZM76.5987 85.4048V53.2594H85.5014V62.3414L84.2466 59.7124C85.2026 57.4419 86.7362 55.7291 88.8474 54.5739C90.9585 53.3789 93.5278 52.7814 96.5551 52.7814V61.3854C96.1568 61.3456 95.7983 61.3256 95.4796 61.3256C95.1609 61.2858 94.8223 61.2659 94.4638 61.2659C91.9145 61.2659 89.8432 62.0028 88.2499 63.4766C86.6964 64.9106 85.9196 67.1612 85.9196 70.2284V85.4048H76.5987Z" fill="#B31A16"/>
<path d="M35.5323 114.554C34.8651 114.554 34.2477 114.425 33.6801 114.166C33.1224 113.907 32.6643 113.533 32.3058 113.045L33.4112 111.716C33.7 112.114 34.0137 112.413 34.3522 112.612C34.7008 112.811 35.0792 112.911 35.4875 112.911C36.5729 112.911 37.1157 112.269 37.1157 110.984V105.577H33.3962V103.949H39.0575V110.88C39.0575 112.114 38.7538 113.036 38.1463 113.643C37.5489 114.25 36.6775 114.554 35.5323 114.554ZM43.6335 114.509C42.9564 114.509 42.3589 114.385 41.841 114.136C41.3232 113.877 40.9199 113.489 40.6311 112.971C40.3423 112.443 40.1979 111.781 40.1979 110.984V106.428H42.0651V110.73C42.0651 111.447 42.2244 111.985 42.5431 112.343C42.8717 112.692 43.3348 112.866 43.9323 112.866C44.3704 112.866 44.7488 112.777 45.0675 112.597C45.3961 112.418 45.6501 112.149 45.8293 111.791C46.0185 111.432 46.1131 110.989 46.1131 110.461V106.428H47.9803V114.405H46.2028V112.254L46.5164 112.911C46.2476 113.429 45.8542 113.827 45.3364 114.106C44.8186 114.375 44.2509 114.509 43.6335 114.509ZM59.1485 106.339C59.7858 106.339 60.3485 106.463 60.8364 106.712C61.3343 106.961 61.7227 107.344 62.0015 107.862C62.2804 108.37 62.4198 109.027 62.4198 109.834V114.405H60.5526V110.073C60.5526 109.366 60.3983 108.838 60.0895 108.49C59.7808 108.141 59.3377 107.967 58.7601 107.967C58.3518 107.967 57.9883 108.056 57.6697 108.236C57.361 108.415 57.117 108.679 56.9378 109.027C56.7685 109.376 56.6838 109.819 56.6838 110.357V114.405H54.8166V110.073C54.8166 109.366 54.6623 108.838 54.3536 108.49C54.0449 108.141 53.6017 107.967 53.0241 107.967C52.6159 107.967 52.2524 108.056 51.9337 108.236C51.625 108.415 51.381 108.679 51.2018 109.027C51.0325 109.376 50.9478 109.819 50.9478 110.357V114.405H49.0807V106.428H50.8582V108.549L50.5445 107.922C50.8134 107.404 51.2018 107.011 51.7096 106.742C52.2275 106.473 52.815 106.339 53.4723 106.339C54.2191 106.339 54.8664 106.523 55.4141 106.891C55.9718 107.26 56.3403 107.817 56.5195 108.564L55.7876 108.31C56.0465 107.713 56.4747 107.235 57.0722 106.876C57.6697 106.518 58.3618 106.339 59.1485 106.339ZM67.8829 114.509C67.2356 114.509 66.6431 114.36 66.1054 114.061C65.5776 113.762 65.1543 113.314 64.8357 112.717C64.527 112.109 64.3726 111.343 64.3726 110.416C64.3726 109.48 64.522 108.714 64.8207 108.116C65.1295 107.519 65.5477 107.075 66.0755 106.787C66.6033 106.488 67.2058 106.339 67.8829 106.339C68.6696 106.339 69.3617 106.508 69.9592 106.846C70.5667 107.185 71.0447 107.658 71.3932 108.266C71.7517 108.873 71.931 109.59 71.931 110.416C71.931 111.243 71.7517 111.965 71.3932 112.582C71.0447 113.19 70.5667 113.663 69.9592 114.001C69.3617 114.34 68.6696 114.509 67.8829 114.509ZM63.4614 117.303V106.428H65.239V108.31L65.1792 110.431L65.3286 112.553V117.303H63.4614ZM67.6738 112.911C68.1219 112.911 68.5202 112.811 68.8688 112.612C69.2273 112.413 69.5111 112.124 69.7202 111.746C69.9293 111.368 70.0339 110.924 70.0339 110.416C70.0339 109.899 69.9293 109.456 69.7202 109.087C69.5111 108.709 69.2273 108.42 68.8688 108.221C68.5202 108.022 68.1219 107.922 67.6738 107.922C67.2257 107.922 66.8224 108.022 66.4639 108.221C66.1054 108.42 65.8216 108.709 65.6124 109.087C65.4033 109.456 65.2987 109.899 65.2987 110.416C65.2987 110.924 65.4033 111.368 65.6124 111.746C65.8216 112.124 66.1054 112.413 66.4639 112.612C66.8224 112.811 67.2257 112.911 67.6738 112.911ZM75.1412 114.405V106.428H76.9188V108.624L76.7097 107.982C76.9487 107.444 77.3221 107.036 77.83 106.757C78.3478 106.478 78.9901 106.339 79.7569 106.339V108.116C79.6772 108.096 79.6025 108.086 79.5328 108.086C79.4631 108.076 79.3934 108.071 79.3237 108.071C78.6167 108.071 78.054 108.28 77.6358 108.699C77.2175 109.107 77.0084 109.719 77.0084 110.536V114.405H75.1412ZM83.5085 114.509C82.6919 114.509 81.965 114.335 81.3277 113.987C80.6903 113.628 80.1874 113.14 79.819 112.523C79.4505 111.905 79.2663 111.203 79.2663 110.416C79.2663 109.62 79.4505 108.918 79.819 108.31C80.1874 107.693 80.6903 107.21 81.3277 106.861C81.965 106.513 82.6919 106.339 83.5085 106.339C84.3351 106.339 85.067 106.513 85.7043 106.861C86.3516 107.21 86.8545 107.688 87.213 108.295C87.5815 108.903 87.7657 109.61 87.7657 110.416C87.7657 111.203 87.5815 111.905 87.213 112.523C86.8545 113.14 86.3516 113.628 85.7043 113.987C85.067 114.335 84.3351 114.509 83.5085 114.509ZM83.5085 112.911C83.9666 112.911 84.3749 112.811 84.7334 112.612C85.0919 112.413 85.3707 112.124 85.5699 111.746C85.779 111.368 85.8836 110.924 85.8836 110.416C85.8836 109.899 85.779 109.456 85.5699 109.087C85.3707 108.709 85.0919 108.42 84.7334 108.221C84.3749 108.022 83.9716 107.922 83.5235 107.922C83.0654 107.922 82.6571 108.022 82.2986 108.221C81.95 108.42 81.6712 108.709 81.4621 109.087C81.253 109.456 81.1484 109.899 81.1484 110.416C81.1484 110.924 81.253 111.368 81.4621 111.746C81.6712 112.124 81.95 112.413 82.2986 112.612C82.6571 112.811 83.0604 112.911 83.5085 112.911ZM92.6283 114.509C91.981 114.509 91.3885 114.36 90.8507 114.061C90.3229 113.762 89.8997 113.314 89.5811 112.717C89.2723 112.109 89.118 111.343 89.118 110.416C89.118 109.48 89.2674 108.714 89.5661 108.116C89.8748 107.519 90.2931 107.075 90.8209 106.787C91.3486 106.488 91.9511 106.339 92.6283 106.339C93.415 106.339 94.1071 106.508 94.7046 106.846C95.312 107.185 95.79 107.658 96.1386 108.266C96.4971 108.873 96.6763 109.59 96.6763 110.416C96.6763 111.243 96.4971 111.965 96.1386 112.582C95.79 113.19 95.312 113.663 94.7046 114.001C94.1071 114.34 93.415 114.509 92.6283 114.509ZM88.2068 117.303V106.428H89.9844V108.31L89.9246 110.431L90.074 112.553V117.303H88.2068ZM92.4192 112.911C92.8673 112.911 93.2656 112.811 93.6142 112.612C93.9727 112.413 94.2565 112.124 94.4656 111.746C94.6747 111.368 94.7793 110.924 94.7793 110.416C94.7793 109.899 94.6747 109.456 94.4656 109.087C94.2565 108.709 93.9727 108.42 93.6142 108.221C93.2656 108.022 92.8673 107.922 92.4192 107.922C91.971 107.922 91.5677 108.022 91.2092 108.221C90.8507 108.42 90.5669 108.709 90.3578 109.087C90.1487 109.456 90.0441 109.899 90.0441 110.416C90.0441 110.924 90.1487 111.368 90.3578 111.746C90.5669 112.124 90.8507 112.413 91.2092 112.612C91.5677 112.811 91.971 112.911 92.4192 112.911ZM100.852 114.509C99.9658 114.509 99.189 114.335 98.5218 113.987C97.8646 113.628 97.3517 113.14 96.9832 112.523C96.6247 111.905 96.4455 111.203 96.4455 110.416C96.4455 109.62 96.6198 108.918 96.9683 108.31C97.3268 107.693 97.8148 107.21 98.4322 106.861C99.0595 106.513 99.7716 106.339 100.568 106.339C101.345 106.339 102.037 106.508 102.645 106.846C103.252 107.185 103.73 107.663 104.079 108.28C104.427 108.898 104.601 109.625 104.601 110.461C104.601 110.541 104.596 110.631 104.586 110.73C104.586 110.83 104.581 110.924 104.571 111.014H97.9243V109.774H103.586L102.854 110.163C102.864 109.704 102.769 109.301 102.57 108.953C102.371 108.604 102.097 108.33 101.748 108.131C101.41 107.932 101.016 107.832 100.568 107.832C100.11 107.832 99.7068 107.932 99.3583 108.131C99.0197 108.33 98.7508 108.609 98.5517 108.968C98.3625 109.316 98.2679 109.729 98.2679 110.207V110.506C98.2679 110.984 98.3774 111.407 98.5965 111.776C98.8156 112.144 99.1243 112.428 99.5226 112.627C99.9209 112.826 100.379 112.926 100.897 112.926C101.345 112.926 101.748 112.856 102.107 112.717C102.465 112.577 102.784 112.358 103.063 112.06L104.064 113.21C103.705 113.628 103.252 113.952 102.704 114.181C102.167 114.4 101.549 114.509 100.852 114.509Z" fill="#B31A16"/>
</svg>
