<svg width="138" height="136" viewBox="0 0 138 136" fill="none" xmlns="http://www.w3.org/2000/svg">
<rect width="138" height="135.931" rx="8.36364" fill="white"/>
<rect x="12.6968" y="12.6966" width="112.606" height="110.537" rx="5.2281" fill="white" fill-opacity="0.1"/>
<rect x="12.6968" y="12.6966" width="112.606" height="110.537" rx="5.2281" stroke="#B31A16" stroke-width="1.49374"/>
<path d="M35.3028 85.4048V43.58H44.9822V77.5178H65.9544V85.4048H35.3028ZM89.7058 85.8828C86.8777 85.8828 84.4478 85.2853 82.4163 84.0903C80.3849 82.8953 78.8314 81.0829 77.7559 78.6531C76.6804 76.1834 76.1426 73.0764 76.1426 69.3321C76.1426 65.548 76.7003 62.441 77.8156 60.0112C78.9708 57.5813 80.5641 55.7689 82.5956 54.5739C84.6271 53.3789 86.9972 52.7814 89.7058 52.7814C92.7331 52.7814 95.4418 53.4586 97.8318 54.8129C100.262 56.1673 102.174 58.0792 103.568 60.5489C105.002 63.0186 105.719 65.9463 105.719 69.3321C105.719 72.6781 105.002 75.5859 103.568 78.0556C102.174 80.5252 100.262 82.4571 97.8318 83.8513C95.4418 85.2056 92.7331 85.8828 89.7058 85.8828ZM70.7054 85.4048V41.0705H80.0264V59.7722L79.4289 69.2724L79.6081 78.8323V85.4048H70.7054ZM88.0926 78.2348C89.6461 78.2348 91.0203 77.8763 92.2153 77.1593C93.4501 76.4423 94.426 75.4266 95.143 74.1121C95.8999 72.7578 96.2783 71.1644 96.2783 69.3321C96.2783 67.46 95.8999 65.8666 95.143 64.5521C94.426 63.2376 93.4501 62.2219 92.2153 61.5049C91.0203 60.7879 89.6461 60.4294 88.0926 60.4294C86.5391 60.4294 85.1449 60.7879 83.9101 61.5049C82.6753 62.2219 81.6993 63.2376 80.9824 64.5521C80.2654 65.8666 79.9069 67.46 79.9069 69.3321C79.9069 71.1644 80.2654 72.7578 80.9824 74.1121C81.6993 75.4266 82.6753 76.4423 83.9101 77.1593C85.1449 77.8763 86.5391 78.2348 88.0926 78.2348Z" fill="#B31A16"/>
<path d="M27.4041 114.405V103.949H29.346V112.762H34.8131V114.405H27.4041ZM38.3346 114.509C37.518 114.509 36.791 114.335 36.1537 113.987C35.5164 113.628 35.0135 113.14 34.645 112.523C34.2766 111.905 34.0924 111.203 34.0924 110.416C34.0924 109.62 34.2766 108.918 34.645 108.31C35.0135 107.693 35.5164 107.21 36.1537 106.861C36.791 106.513 37.518 106.339 38.3346 106.339C39.1611 106.339 39.8931 106.513 40.5304 106.861C41.1777 107.21 41.6806 107.688 42.0391 108.295C42.4075 108.903 42.5917 109.61 42.5917 110.416C42.5917 111.203 42.4075 111.905 42.0391 112.523C41.6806 113.14 41.1777 113.628 40.5304 113.987C39.8931 114.335 39.1611 114.509 38.3346 114.509ZM38.3346 112.911C38.7927 112.911 39.201 112.811 39.5595 112.612C39.9179 112.413 40.1968 112.124 40.3959 111.746C40.6051 111.368 40.7096 110.924 40.7096 110.416C40.7096 109.899 40.6051 109.456 40.3959 109.087C40.1968 108.709 39.9179 108.42 39.5595 108.221C39.201 108.022 38.7976 107.922 38.3495 107.922C37.8914 107.922 37.4831 108.022 37.1246 108.221C36.7761 108.42 36.4973 108.709 36.2882 109.087C36.079 109.456 35.9745 109.899 35.9745 110.416C35.9745 110.924 36.079 111.368 36.2882 111.746C36.4973 112.124 36.7761 112.413 37.1246 112.612C37.4831 112.811 37.8865 112.911 38.3346 112.911ZM44.5767 114.405L41.6489 106.428H43.4116L45.921 113.464H45.0845L47.7135 106.428H49.282L51.8363 113.464H51.0147L53.5989 106.428H55.2569L52.3143 114.405H50.5218L48.1915 108.176H48.7442L46.3692 114.405H44.5767ZM58.7269 114.509C57.8406 114.509 57.0638 114.335 56.3966 113.987C55.7394 113.628 55.2265 113.14 54.8581 112.523C54.4996 111.905 54.3203 111.203 54.3203 110.416C54.3203 109.62 54.4946 108.918 54.8431 108.31C55.2016 107.693 55.6896 107.21 56.307 106.861C56.9344 106.513 57.6464 106.339 58.443 106.339C59.2198 106.339 59.9119 106.508 60.5193 106.846C61.1268 107.185 61.6048 107.663 61.9533 108.28C62.3019 108.898 62.4762 109.625 62.4762 110.461C62.4762 110.541 62.4712 110.631 62.4612 110.73C62.4612 110.83 62.4562 110.924 62.4463 111.014H55.7991V109.774H61.4604L60.7285 110.163C60.7384 109.704 60.6438 109.301 60.4447 108.953C60.2455 108.604 59.9716 108.33 59.6231 108.131C59.2845 107.932 58.8912 107.832 58.443 107.832C57.985 107.832 57.5817 107.932 57.2331 108.131C56.8945 108.33 56.6257 108.609 56.4265 108.968C56.2373 109.316 56.1427 109.729 56.1427 110.207V110.506C56.1427 110.984 56.2522 111.407 56.4713 111.776C56.6904 112.144 56.9991 112.428 57.3974 112.627C57.7958 112.826 58.2538 112.926 58.7717 112.926C59.2198 112.926 59.6231 112.856 59.9816 112.717C60.3401 112.577 60.6588 112.358 60.9376 112.06L61.9384 113.21C61.5799 113.628 61.1268 113.952 60.5791 114.181C60.0413 114.4 59.4239 114.509 58.7269 114.509ZM62.9253 114.405V106.428H64.7029V108.624L64.4938 107.982C64.7328 107.444 65.1062 107.036 65.6141 106.757C66.1319 106.478 66.7742 106.339 67.541 106.339V108.116C67.4613 108.096 67.3866 108.086 67.3169 108.086C67.2472 108.076 67.1775 108.071 67.1078 108.071C66.4008 108.071 65.8381 108.28 65.4199 108.699C65.0016 109.107 64.7925 109.719 64.7925 110.536V114.405H62.9253ZM75.0588 114.509C74.3817 114.509 73.7792 114.36 73.2514 114.061C72.7236 113.762 72.3054 113.314 71.9967 112.717C71.6979 112.109 71.5485 111.343 71.5485 110.416C71.5485 109.48 71.7029 108.714 72.0116 108.116C72.3303 107.519 72.7535 107.075 73.2813 106.787C73.819 106.488 74.4115 106.339 75.0588 106.339C75.8455 106.339 76.5376 106.508 77.1351 106.846C77.7426 107.185 78.2206 107.658 78.5691 108.266C78.9276 108.873 79.1069 109.59 79.1069 110.416C79.1069 111.243 78.9276 111.96 78.5691 112.567C78.2206 113.175 77.7426 113.653 77.1351 114.001C76.5376 114.34 75.8455 114.509 75.0588 114.509ZM70.6374 114.405V103.321H72.5045V108.28L72.3552 110.402L72.4149 112.523V114.405H70.6374ZM74.8497 112.911C75.2978 112.911 75.6962 112.811 76.0447 112.612C76.4032 112.413 76.687 112.124 76.8961 111.746C77.1053 111.368 77.2098 110.924 77.2098 110.416C77.2098 109.899 77.1053 109.456 76.8961 109.087C76.687 108.709 76.4032 108.42 76.0447 108.221C75.6962 108.022 75.2978 107.922 74.8497 107.922C74.4016 107.922 73.9983 108.022 73.6398 108.221C73.2813 108.42 72.9975 108.709 72.7883 109.087C72.5792 109.456 72.4747 109.899 72.4747 110.416C72.4747 110.924 72.5792 111.368 72.7883 111.746C72.9975 112.124 73.2813 112.413 73.6398 112.612C73.9983 112.811 74.4016 112.911 74.8497 112.911ZM84.3456 114.405V112.792L84.241 112.448V109.625C84.241 109.077 84.0767 108.654 83.7481 108.355C83.4195 108.046 82.9216 107.892 82.2544 107.892C81.8062 107.892 81.3631 107.962 80.9249 108.101C80.4967 108.241 80.1332 108.435 79.8345 108.684L79.1026 107.324C79.5308 106.996 80.0386 106.752 80.6262 106.593C81.2237 106.423 81.8411 106.339 82.4784 106.339C83.6336 106.339 84.5248 106.617 85.1522 107.175C85.7895 107.723 86.1082 108.574 86.1082 109.729V114.405H84.3456ZM81.8361 114.509C81.2386 114.509 80.7158 114.41 80.2677 114.211C79.8196 114.001 79.471 113.718 79.2221 113.359C78.9831 112.991 78.8636 112.577 78.8636 112.119C78.8636 111.671 78.9681 111.268 79.1772 110.909C79.3963 110.551 79.7498 110.267 80.2378 110.058C80.7258 109.849 81.373 109.744 82.1797 109.744H84.495V110.984H82.3141C81.6768 110.984 81.2486 111.089 81.0295 111.298C80.8104 111.497 80.7009 111.746 80.7009 112.045C80.7009 112.383 80.8353 112.652 81.1042 112.851C81.373 113.05 81.7465 113.15 82.2245 113.15C82.6826 113.15 83.0908 113.045 83.4493 112.836C83.8178 112.627 84.0817 112.319 84.241 111.91L84.5547 113.031C84.3755 113.499 84.0518 113.862 83.5838 114.121C83.1257 114.38 82.5431 114.509 81.8361 114.509ZM91.6862 106.339C92.3235 106.339 92.8911 106.463 93.389 106.712C93.8969 106.961 94.2952 107.344 94.584 107.862C94.8728 108.37 95.0172 109.027 95.0172 109.834V114.405H93.15V110.073C93.15 109.366 92.9808 108.838 92.6422 108.49C92.3135 108.141 91.8505 107.967 91.253 107.967C90.8148 107.967 90.4265 108.056 90.0879 108.236C89.7493 108.415 89.4854 108.684 89.2962 109.042C89.1169 109.391 89.0273 109.834 89.0273 110.372V114.405H87.1601V106.428H88.9377V108.579L88.624 107.922C88.9028 107.414 89.3061 107.026 89.8339 106.757C90.3717 106.478 90.9891 106.339 91.6862 106.339ZM99.4319 114.509C98.6651 114.509 97.973 114.34 97.3556 114.001C96.7482 113.653 96.2702 113.175 95.9216 112.567C95.5731 111.96 95.3988 111.243 95.3988 110.416C95.3988 109.59 95.5731 108.873 95.9216 108.266C96.2702 107.658 96.7482 107.185 97.3556 106.846C97.973 106.508 98.6651 106.339 99.4319 106.339C100.099 106.339 100.697 106.488 101.224 106.787C101.752 107.075 102.17 107.519 102.479 108.116C102.788 108.714 102.942 109.48 102.942 110.416C102.942 111.343 102.793 112.109 102.494 112.717C102.195 113.314 101.782 113.762 101.254 114.061C100.727 114.36 100.119 114.509 99.4319 114.509ZM99.656 112.911C100.104 112.911 100.502 112.811 100.851 112.612C101.209 112.413 101.493 112.124 101.702 111.746C101.921 111.368 102.031 110.924 102.031 110.416C102.031 109.899 101.921 109.456 101.702 109.087C101.493 108.709 101.209 108.42 100.851 108.221C100.502 108.022 100.104 107.922 99.656 107.922C99.2079 107.922 98.8046 108.022 98.4461 108.221C98.0975 108.42 97.8137 108.709 97.5946 109.087C97.3855 109.456 97.2809 109.899 97.2809 110.416C97.2809 110.924 97.3855 111.368 97.5946 111.746C97.8137 112.124 98.0975 112.413 98.4461 112.612C98.8046 112.811 99.2079 112.911 99.656 112.911ZM102.076 114.405V112.523L102.151 110.402L102.001 108.28V103.321H103.853V114.405H102.076ZM107.431 114.509C106.764 114.509 106.122 114.425 105.504 114.255C104.897 114.076 104.414 113.862 104.055 113.613L104.772 112.194C105.131 112.423 105.559 112.612 106.057 112.762C106.555 112.911 107.053 112.986 107.551 112.986C108.138 112.986 108.562 112.906 108.82 112.747C109.089 112.587 109.224 112.373 109.224 112.104C109.224 111.885 109.134 111.721 108.955 111.611C108.776 111.492 108.542 111.402 108.253 111.343C107.964 111.283 107.64 111.228 107.282 111.178C106.933 111.129 106.58 111.064 106.221 110.984C105.873 110.894 105.554 110.77 105.265 110.611C104.977 110.441 104.743 110.217 104.563 109.938C104.384 109.66 104.294 109.291 104.294 108.833C104.294 108.325 104.439 107.887 104.728 107.519C105.016 107.14 105.42 106.851 105.938 106.652C106.465 106.443 107.088 106.339 107.805 106.339C108.342 106.339 108.885 106.398 109.433 106.518C109.981 106.637 110.434 106.807 110.792 107.026L110.075 108.445C109.697 108.216 109.313 108.061 108.925 107.982C108.547 107.892 108.168 107.847 107.79 107.847C107.222 107.847 106.799 107.932 106.52 108.101C106.251 108.27 106.117 108.485 106.117 108.743C106.117 108.982 106.206 109.162 106.386 109.281C106.565 109.401 106.799 109.495 107.088 109.565C107.377 109.635 107.695 109.695 108.044 109.744C108.402 109.784 108.756 109.849 109.104 109.938C109.453 110.028 109.771 110.153 110.06 110.312C110.359 110.461 110.598 110.675 110.777 110.954C110.957 111.233 111.046 111.597 111.046 112.045C111.046 112.543 110.897 112.976 110.598 113.344C110.309 113.713 109.896 114.001 109.358 114.211C108.82 114.41 108.178 114.509 107.431 114.509Z" fill="#B31A16"/>
</svg>
