<svg width="139" height="136" viewBox="0 0 139 136" fill="none" xmlns="http://www.w3.org/2000/svg">
<rect x="0.5" width="138" height="135.931" rx="8.36364" fill="white"/>
<rect x="13.1968" y="12.6966" width="112.606" height="110.537" rx="5.2281" fill="white" fill-opacity="0.1"/>
<rect x="13.1968" y="12.6966" width="112.606" height="110.537" rx="5.2281" stroke="#B31A16" stroke-width="1.49374"/>
<path d="M48.8709 86.1218C42.9358 86.1218 38.2952 84.4687 34.9492 81.1626C31.6032 77.8564 29.9303 73.1362 29.9303 67.0019V43.58H39.6097V66.6434C39.6097 70.6267 40.4263 73.4947 42.0594 75.2473C43.6926 77 45.983 77.8763 48.9307 77.8763C51.8783 77.8763 54.1687 77 55.8019 75.2473C57.435 73.4947 58.2516 70.6267 58.2516 66.6434V43.58H67.8116V67.0019C67.8116 73.1362 66.1386 77.8564 62.7926 81.1626C59.4466 84.4687 54.8061 86.1218 48.8709 86.1218ZM95.7198 85.8828C92.8917 85.8828 90.4618 85.2853 88.4304 84.0903C86.3989 82.8953 84.8454 81.0829 83.7699 78.6531C82.6944 76.1834 82.1566 73.0764 82.1566 69.3321C82.1566 65.548 82.7143 62.441 83.8296 60.0112C84.9848 57.5813 86.5781 55.7689 88.6096 54.5739C90.6411 53.3789 93.0112 52.7814 95.7198 52.7814C98.7471 52.7814 101.456 53.4586 103.846 54.8129C106.276 56.1673 108.188 58.0792 109.582 60.5489C111.016 63.0186 111.733 65.9463 111.733 69.3321C111.733 72.6781 111.016 75.5859 109.582 78.0556C108.188 80.5252 106.276 82.4571 103.846 83.8513C101.456 85.2056 98.7471 85.8828 95.7198 85.8828ZM76.7194 85.4048V41.0705H86.0404V59.7722L85.4429 69.2724L85.6221 78.8323V85.4048H76.7194ZM94.1066 78.2348C95.6601 78.2348 97.0343 77.8763 98.2293 77.1593C99.4641 76.4423 100.44 75.4266 101.157 74.1121C101.914 72.7578 102.292 71.1644 102.292 69.3321C102.292 67.46 101.914 65.8666 101.157 64.5521C100.44 63.2376 99.4641 62.2219 98.2293 61.5049C97.0343 60.7879 95.6601 60.4294 94.1066 60.4294C92.5531 60.4294 91.1589 60.7879 89.9241 61.5049C88.6893 62.2219 87.7134 63.2376 86.9964 64.5521C86.2794 65.8666 85.9209 67.46 85.9209 69.3321C85.9209 71.1644 86.2794 72.7578 86.9964 74.1121C87.7134 75.4266 88.6893 76.4423 89.9241 77.1593C91.1589 77.8763 92.5531 78.2348 94.1066 78.2348Z" fill="#B31A16"/>
<path d="M32.4003 114.554C30.9663 114.554 29.841 114.151 29.0244 113.344C28.2178 112.538 27.8145 111.372 27.8145 109.849V103.949H29.7564V109.774C29.7564 110.85 29.9854 111.631 30.4435 112.119C30.9115 112.607 31.5688 112.851 32.4152 112.851C33.2617 112.851 33.9139 112.607 34.372 112.119C34.8301 111.631 35.0591 110.85 35.0591 109.774V103.949H36.9711V109.849C36.9711 111.372 36.5628 112.538 35.7463 113.344C34.9396 114.151 33.8243 114.554 32.4003 114.554ZM42.5885 114.509C41.9413 114.509 41.3487 114.36 40.811 114.061C40.2832 113.762 39.86 113.314 39.5413 112.717C39.2326 112.109 39.0782 111.343 39.0782 110.416C39.0782 109.48 39.2276 108.714 39.5264 108.116C39.8351 107.519 40.2533 107.075 40.7811 106.787C41.3089 106.488 41.9114 106.339 42.5885 106.339C43.3752 106.339 44.0673 106.508 44.6648 106.846C45.2723 107.185 45.7503 107.658 46.0988 108.266C46.4573 108.873 46.6366 109.59 46.6366 110.416C46.6366 111.243 46.4573 111.965 46.0988 112.582C45.7503 113.19 45.2723 113.663 44.6648 114.001C44.0673 114.34 43.3752 114.509 42.5885 114.509ZM38.1671 117.303V106.428H39.9446V108.31L39.8849 110.431L40.0342 112.553V117.303H38.1671ZM42.3794 112.911C42.8275 112.911 43.2259 112.811 43.5744 112.612C43.9329 112.413 44.2167 112.124 44.4258 111.746C44.635 111.368 44.7395 110.924 44.7395 110.416C44.7395 109.899 44.635 109.456 44.4258 109.087C44.2167 108.709 43.9329 108.42 43.5744 108.221C43.2259 108.022 42.8275 107.922 42.3794 107.922C41.9313 107.922 41.528 108.022 41.1695 108.221C40.811 108.42 40.5272 108.709 40.3181 109.087C40.1089 109.456 40.0044 109.899 40.0044 110.416C40.0044 110.924 40.1089 111.368 40.3181 111.746C40.5272 112.124 40.811 112.413 41.1695 112.612C41.528 112.811 41.9313 112.911 42.3794 112.911ZM51.4845 114.509C50.8372 114.509 50.2447 114.36 49.7069 114.061C49.1791 113.762 48.7559 113.314 48.4372 112.717C48.1285 112.109 47.9742 111.343 47.9742 110.416C47.9742 109.48 48.1236 108.714 48.4223 108.116C48.731 107.519 49.1493 107.075 49.6771 106.787C50.2048 106.488 50.8073 106.339 51.4845 106.339C52.2712 106.339 52.9633 106.508 53.5608 106.846C54.1682 107.185 54.6462 107.658 54.9948 108.266C55.3533 108.873 55.5325 109.59 55.5325 110.416C55.5325 111.243 55.3533 111.965 54.9948 112.582C54.6462 113.19 54.1682 113.663 53.5608 114.001C52.9633 114.34 52.2712 114.509 51.4845 114.509ZM47.063 117.303V106.428H48.8406V108.31L48.7808 110.431L48.9302 112.553V117.303H47.063ZM51.2754 112.911C51.7235 112.911 52.1218 112.811 52.4704 112.612C52.8289 112.413 53.1127 112.124 53.3218 111.746C53.5309 111.368 53.6355 110.924 53.6355 110.416C53.6355 109.899 53.5309 109.456 53.3218 109.087C53.1127 108.709 52.8289 108.42 52.4704 108.221C52.1218 108.022 51.7235 107.922 51.2754 107.922C50.8272 107.922 50.4239 108.022 50.0654 108.221C49.7069 108.42 49.4231 108.709 49.214 109.087C49.0049 109.456 48.9003 109.899 48.9003 110.416C48.9003 110.924 49.0049 111.368 49.214 111.746C49.4231 112.124 49.7069 112.413 50.0654 112.612C50.4239 112.811 50.8272 112.911 51.2754 112.911ZM59.7082 114.509C58.822 114.509 58.0452 114.335 57.378 113.987C56.7208 113.628 56.2079 113.14 55.8394 112.523C55.4809 111.905 55.3017 111.203 55.3017 110.416C55.3017 109.62 55.476 108.918 55.8245 108.31C56.183 107.693 56.671 107.21 57.2884 106.861C57.9157 106.513 58.6278 106.339 59.4244 106.339C60.2012 106.339 60.8933 106.508 61.5007 106.846C62.1082 107.185 62.5862 107.663 62.9347 108.28C63.2833 108.898 63.4575 109.625 63.4575 110.461C63.4575 110.541 63.4526 110.631 63.4426 110.73C63.4426 110.83 63.4376 110.924 63.4277 111.014H56.7805V109.774H62.4418L61.7099 110.163C61.7198 109.704 61.6252 109.301 61.426 108.953C61.2269 108.604 60.953 108.33 60.6045 108.131C60.2659 107.932 59.8726 107.832 59.4244 107.832C58.9663 107.832 58.563 107.932 58.2145 108.131C57.8759 108.33 57.607 108.609 57.4079 108.968C57.2187 109.316 57.1241 109.729 57.1241 110.207V110.506C57.1241 110.984 57.2336 111.407 57.4527 111.776C57.6718 112.144 57.9805 112.428 58.3788 112.627C58.7771 112.826 59.2352 112.926 59.7531 112.926C60.2012 112.926 60.6045 112.856 60.963 112.717C61.3215 112.577 61.6401 112.358 61.919 112.06L62.9198 113.21C62.5613 113.628 62.1082 113.952 61.5605 114.181C61.0227 114.4 60.4053 114.509 59.7082 114.509ZM63.9067 114.405V106.428H65.6843V108.624L65.4751 107.982C65.7141 107.444 66.0876 107.036 66.5954 106.757C67.1133 106.478 67.7556 106.339 68.5224 106.339V108.116C68.4427 108.096 68.368 108.086 68.2983 108.086C68.2286 108.076 68.1589 108.071 68.0892 108.071C67.3821 108.071 66.8195 108.28 66.4013 108.699C65.983 109.107 65.7739 109.719 65.7739 110.536V114.405H63.9067ZM76.0402 114.509C75.3631 114.509 74.7606 114.36 74.2328 114.061C73.705 113.762 73.2867 113.314 72.978 112.717C72.6793 112.109 72.5299 111.343 72.5299 110.416C72.5299 109.48 72.6843 108.714 72.993 108.116C73.3116 107.519 73.7349 107.075 74.2627 106.787C74.8004 106.488 75.3929 106.339 76.0402 106.339C76.8269 106.339 77.519 106.508 78.1165 106.846C78.724 107.185 79.202 107.658 79.5505 108.266C79.909 108.873 80.0883 109.59 80.0883 110.416C80.0883 111.243 79.909 111.96 79.5505 112.567C79.202 113.175 78.724 113.653 78.1165 114.001C77.519 114.34 76.8269 114.509 76.0402 114.509ZM71.6187 114.405V103.321H73.4859V108.28L73.3365 110.402L73.3963 112.523V114.405H71.6187ZM75.8311 112.911C76.2792 112.911 76.6775 112.811 77.0261 112.612C77.3846 112.413 77.6684 112.124 77.8775 111.746C78.0866 111.368 78.1912 110.924 78.1912 110.416C78.1912 109.899 78.0866 109.456 77.8775 109.087C77.6684 108.709 77.3846 108.42 77.0261 108.221C76.6775 108.022 76.2792 107.922 75.8311 107.922C75.383 107.922 74.9797 108.022 74.6212 108.221C74.2627 108.42 73.9789 108.709 73.7697 109.087C73.5606 109.456 73.456 109.899 73.456 110.416C73.456 110.924 73.5606 111.368 73.7697 111.746C73.9789 112.124 74.2627 112.413 74.6212 112.612C74.9797 112.811 75.383 112.911 75.8311 112.911ZM85.327 114.405V112.792L85.2224 112.448V109.625C85.2224 109.077 85.0581 108.654 84.7295 108.355C84.4009 108.046 83.9029 107.892 83.2357 107.892C82.7876 107.892 82.3445 107.962 81.9063 108.101C81.4781 108.241 81.1146 108.435 80.8159 108.684L80.0839 107.324C80.5121 106.996 81.02 106.752 81.6076 106.593C82.2051 106.423 82.8225 106.339 83.4598 106.339C84.615 106.339 85.5062 106.617 86.1336 107.175C86.7709 107.723 87.0896 108.574 87.0896 109.729V114.405H85.327ZM82.8175 114.509C82.22 114.509 81.6972 114.41 81.2491 114.211C80.8009 114.001 80.4524 113.718 80.2034 113.359C79.9644 112.991 79.8449 112.577 79.8449 112.119C79.8449 111.671 79.9495 111.268 80.1586 110.909C80.3777 110.551 80.7312 110.267 81.2192 110.058C81.7071 109.849 82.3544 109.744 83.1611 109.744H85.4764V110.984H83.2955C82.6582 110.984 82.23 111.089 82.0109 111.298C81.7918 111.497 81.6822 111.746 81.6822 112.045C81.6822 112.383 81.8167 112.652 82.0856 112.851C82.3544 113.05 82.7279 113.15 83.2059 113.15C83.6639 113.15 84.0722 113.045 84.4307 112.836C84.7992 112.627 85.0631 112.319 85.2224 111.91L85.5361 113.031C85.3569 113.499 85.0332 113.862 84.5652 114.121C84.1071 114.38 83.5245 114.509 82.8175 114.509ZM92.6676 106.339C93.3049 106.339 93.8725 106.463 94.3704 106.712C94.8783 106.961 95.2766 107.344 95.5654 107.862C95.8542 108.37 95.9986 109.027 95.9986 109.834V114.405H94.1314V110.073C94.1314 109.366 93.9621 108.838 93.6236 108.49C93.2949 108.141 92.8319 107.967 92.2344 107.967C91.7962 107.967 91.4078 108.056 91.0693 108.236C90.7307 108.415 90.4668 108.684 90.2776 109.042C90.0983 109.391 90.0087 109.834 90.0087 110.372V114.405H88.1415V106.428H89.9191V108.579L89.6054 107.922C89.8842 107.414 90.2875 107.026 90.8153 106.757C91.3531 106.478 91.9705 106.339 92.6676 106.339ZM100.413 114.509C99.6465 114.509 98.9544 114.34 98.337 114.001C97.7296 113.653 97.2516 113.175 96.903 112.567C96.5545 111.96 96.3802 111.243 96.3802 110.416C96.3802 109.59 96.5545 108.873 96.903 108.266C97.2516 107.658 97.7296 107.185 98.337 106.846C98.9544 106.508 99.6465 106.339 100.413 106.339C101.081 106.339 101.678 106.488 102.206 106.787C102.734 107.075 103.152 107.519 103.461 108.116C103.769 108.714 103.924 109.48 103.924 110.416C103.924 111.343 103.774 112.109 103.475 112.717C103.177 113.314 102.763 113.762 102.236 114.061C101.708 114.36 101.1 114.509 100.413 114.509ZM100.637 112.911C101.085 112.911 101.484 112.811 101.832 112.612C102.191 112.413 102.475 112.124 102.684 111.746C102.903 111.368 103.012 110.924 103.012 110.416C103.012 109.899 102.903 109.456 102.684 109.087C102.475 108.709 102.191 108.42 101.832 108.221C101.484 108.022 101.085 107.922 100.637 107.922C100.189 107.922 99.7859 108.022 99.4274 108.221C99.0789 108.42 98.7951 108.709 98.576 109.087C98.3669 109.456 98.2623 109.899 98.2623 110.416C98.2623 110.924 98.3669 111.368 98.576 111.746C98.7951 112.124 99.0789 112.413 99.4274 112.612C99.7859 112.811 100.189 112.911 100.637 112.911ZM103.057 114.405V112.523L103.132 110.402L102.983 108.28V103.321H104.835V114.405H103.057ZM108.413 114.509C107.745 114.509 107.103 114.425 106.486 114.255C105.878 114.076 105.395 113.862 105.037 113.613L105.754 112.194C106.112 112.423 106.541 112.612 107.038 112.762C107.536 112.911 108.034 112.986 108.532 112.986C109.12 112.986 109.543 112.906 109.802 112.747C110.071 112.587 110.205 112.373 110.205 112.104C110.205 111.885 110.116 111.721 109.936 111.611C109.757 111.492 109.523 111.402 109.234 111.343C108.945 111.283 108.622 111.228 108.263 111.178C107.915 111.129 107.561 111.064 107.203 110.984C106.854 110.894 106.536 110.77 106.247 110.611C105.958 110.441 105.724 110.217 105.545 109.938C105.365 109.66 105.276 109.291 105.276 108.833C105.276 108.325 105.42 107.887 105.709 107.519C105.998 107.14 106.401 106.851 106.919 106.652C107.447 106.443 108.069 106.339 108.786 106.339C109.324 106.339 109.867 106.398 110.414 106.518C110.962 106.637 111.415 106.807 111.774 107.026L111.057 108.445C110.678 108.216 110.295 108.061 109.906 107.982C109.528 107.892 109.15 107.847 108.771 107.847C108.204 107.847 107.78 107.932 107.501 108.101C107.233 108.27 107.098 108.485 107.098 108.743C107.098 108.982 107.188 109.162 107.367 109.281C107.546 109.401 107.78 109.495 108.069 109.565C108.358 109.635 108.677 109.695 109.025 109.744C109.384 109.784 109.737 109.849 110.086 109.938C110.434 110.028 110.753 110.153 111.042 110.312C111.34 110.461 111.579 110.675 111.759 110.954C111.938 111.233 112.028 111.597 112.028 112.045C112.028 112.543 111.878 112.976 111.579 113.344C111.291 113.713 110.877 114.001 110.34 114.211C109.802 114.41 109.16 114.509 108.413 114.509Z" fill="#B31A16"/>
</svg>
